<svg id="Component_21_1" data-name="Component 21 – 1" xmlns="http://www.w3.org/2000/svg" width="85.609" height="70.944" viewBox="0 0 85.609 70.944">
  <g id="Group_57" data-name="Group 57" transform="translate(0 4.367)">
    <path id="Path_93" data-name="Path 93" d="M137.448,43.171a10.876,10.876,0,1,0,10.876,10.876,10.851,10.851,0,0,0-10.876-10.876Zm0-12.933a33.288,33.288,0,1,0,33.288,33.288A33.306,33.306,0,0,0,137.448,30.238ZM159.861,80.06a25.877,25.877,0,0,0-44.9,0,27.961,27.961,0,1,1,44.9,0Z" transform="translate(-104.16 -30.238)" fill="#05508d"/>
  </g>
  <path id="ic_add_24px" d="M25.6,16.771H16.771V25.6H13.828V16.771H5V13.828h8.828V5h2.943v8.828H25.6Z" transform="translate(60.009 -5)" fill="#05508d"/>
</svg>
