<svg xmlns="http://www.w3.org/2000/svg" xmlns:xlink="http://www.w3.org/1999/xlink" width="306.786" height="49.765" viewBox="0 0 306.786 49.765">
  <defs>
    <clipPath id="clip-path">
      <path id="Path_170" data-name="Path 170" d="M48.364,16.278l3.623,2.613.686.245-.068.2,3.79,2.734.078-.16.614-1.256,2.992,1.034,2.884,1c-.122-.345-.235-.686-.348-1.028l-.272-.826L52.4,13.606q-2.014,1.337-4.032,2.672" transform="translate(-48.364 -13.606)" fill="none"/>
    </clipPath>
    <linearGradient id="linear-gradient" x1="-2.444" y1="4.374" x2="-2.393" y2="4.374" gradientUnits="objectBoundingBox">
      <stop offset="0" stop-color="#0069b5"/>
      <stop offset="1" stop-color="#003d78"/>
    </linearGradient>
    <clipPath id="clip-path-2">
      <path id="Path_171" data-name="Path 171" d="M24.744,60.193c-.063.041-.124.084-.187.125l.257-.125Z" transform="translate(-24.557 -60.193)" fill="none"/>
    </clipPath>
    <linearGradient id="linear-gradient-2" x1="-70.565" y1="42.693" x2="-67.692" y2="42.693" xlink:href="#linear-gradient"/>
    <clipPath id="clip-path-3">
      <path id="Path_172" data-name="Path 172" d="M25.9,0,12.68,9.608V3.495H8.49v9.154L0,18.821,9.245,47.27c.317-.159.637-.309.958-.458.443-.205.86-.4,1.259-.617.383-.211.767-.418,1.152-.627.7-.378,1.405-.762,2.108-1.159H13.214l-7.84-23.95L25.9,5.654l8.173,5.895q2.021-1.337,4.038-2.676Z" fill="none"/>
    </clipPath>
    <linearGradient id="linear-gradient-3" x1="0" y1="1.053" x2="0.019" y2="1.053" xlink:href="#linear-gradient"/>
    <clipPath id="clip-path-4">
      <path id="Path_173" data-name="Path 173" d="M49.171,26.491l1.183.854L42.515,51.3H26.3c-.838.474-1.686.933-2.551,1.363a59.21,59.21,0,0,1-8.765,3.494H45.835l9.241-28.436a1.766,1.766,0,0,1-1.375.08L50.716,26.76l-1.434-.5c-.038.077-.075.153-.112.229" transform="translate(-14.982 -26.262)" fill="none"/>
    </clipPath>
    <linearGradient id="linear-gradient-4" x1="-0.276" y1="1.017" x2="-0.257" y2="1.017" xlink:href="#linear-gradient"/>
    <clipPath id="clip-path-5">
      <path id="Path_174" data-name="Path 174" d="M34.155,48.546v0l-.007,0,.005.005" transform="translate(-34.15 -48.541)" fill="none"/>
    </clipPath>
    <linearGradient id="linear-gradient-5" x1="-3793.312" y1="0.5" x2="-3682.234" y2="0.5" gradientUnits="objectBoundingBox">
      <stop offset="0" stop-color="#00973e"/>
      <stop offset="0.233" stop-color="#00973e"/>
      <stop offset="1" stop-color="#89ba2b"/>
    </linearGradient>
    <clipPath id="clip-path-6">
      <path id="Path_175" data-name="Path 175" d="M28.1,35a17.652,17.652,0,0,1-2.5-4.531c-.066-.179-.021-.258.136-.333q1.336-.644,2.666-1.3,1.7-.834,3.4-1.676c.1-.051.163-.036.212.069a17.005,17.005,0,0,0,1.611,2.7A15.969,15.969,0,0,0,35,31.582a51.55,51.55,0,0,1-4.681,5.871A18.635,18.635,0,0,1,28.1,35M48.38,6.986c-1.085.761-2.205,1.471-3.309,2.2q-4.075,2.7-8.152,5.4a.9.9,0,0,0-.446.94.86.86,0,0,0,.668.711c1.129.384,2.255.776,3.382,1.167.456.159.91.323,1.38.491-.055.156-.094.267-.132.379q-.3.891-.6,1.782v0c-.21.471-.423.941-.629,1.414-.241.553-.474,1.108-.712,1.662l.027-.005-.015.013a1.353,1.353,0,0,0-.172.217c-.2.4-.371.822-.584,1.218-.78,1.451-1.518,2.927-2.368,4.336-.385.637-.784,1.26-1.191,1.877a13.8,13.8,0,0,1-1.341-2.025,11.118,11.118,0,0,1-1.127-3.1c-.046-.232-.089-.465-.136-.713a1.566,1.566,0,0,0-.176.058c-.727.354-1.456.7-2.176,1.07-.161.082-.212.038-.249-.108-.115-.465-.234-.929-.345-1.394-.042-.177-.066-.359-.1-.559-.1.042-.168.07-.237.1-.409.2-.815.405-1.224.6-.792.386-1.585.767-2.376,1.154q-1.365.666-2.725,1.338c-.79.387-1.578.781-2.372,1.16a.186.186,0,0,0-.112.278c.154.421.277.857.468,1.262.359.763.716,1.532,1.145,2.256A12.994,12.994,0,0,0,27.423,37.1c.337.185.7.326,1.049.487-.027-.028-.052-.058-.081-.083-.53-.468-1.083-.911-1.586-1.405a18.251,18.251,0,0,1-3.144-4.135A17.326,17.326,0,0,1,22.53,29.5a.149.149,0,0,1,.091-.224c.255-.118.506-.247.758-.371q1.162-.572,2.323-1.141,1.208-.594,2.42-1.185c.251-.122.5-.239.77-.364.075.153.139.288.207.419a.139.139,0,0,1-.076.218c-.114.053-.229.1-.342.159L26.39,28.13c-.775.379-1.552.754-2.326,1.136-.239.117-.236.127-.154.388.01.034.021.069.034.1a16.6,16.6,0,0,0,1.881,3.87,13.21,13.21,0,0,0,4.216,4.121,49.955,49.955,0,0,1-9.684,8c-1.731,1.1-3.558,2.045-5.357,3.032-.741.407-1.529.726-2.284,1.109-.109.056-.148.249-.22.38.137.062.271.131.413.179.046.015.113-.027.17-.045a58.4,58.4,0,0,0,9.417-3.691A53.623,53.623,0,0,0,38.228,34.857a53.876,53.876,0,0,0,8.9-13.119c.277-.576.56-1.149.846-1.737l.8.275q2.2.762,4.394,1.526a.883.883,0,0,0,1.118-1.118c-.143-.392-.273-.789-.4-1.185-1.312-3.988-2.634-7.973-3.92-11.97a.994.994,0,0,0-.916-.779,1.172,1.172,0,0,0-.667.236" transform="translate(-12.495 -6.75)" fill="none"/>
    </clipPath>
    <linearGradient id="linear-gradient-6" x1="-0.22" y1="1.025" x2="-0.202" y2="1.025" xlink:href="#linear-gradient-5"/>
    <clipPath id="clip-path-7">
      <path id="Path_176" data-name="Path 176" d="M75.276,33.021v24.9H94.238V51.877H82.178V33.021Z" transform="translate(-75.276 -33.021)" fill="none"/>
    </clipPath>
    <linearGradient id="linear-gradient-7" x1="-2.456" y1="0.977" x2="-2.423" y2="0.977" xlink:href="#linear-gradient"/>
    <clipPath id="clip-path-8">
      <path id="Path_177" data-name="Path 177" d="M104.978,33.021v24.9h20.208v-5.87H111.808V48.105h11.954V42.663H111.808V38.891h13.2V33.021Z" transform="translate(-104.978 -33.021)" fill="none"/>
    </clipPath>
    <linearGradient id="linear-gradient-8" x1="-3.269" y1="0.975" x2="-3.237" y2="0.975" xlink:href="#linear-gradient"/>
    <clipPath id="clip-path-9">
      <path id="Path_178" data-name="Path 178" d="M153.823,33.021V46.184L143.577,33.021h-6.44v24.9h6.831V44.262L154.6,57.925h6.048v-24.9Z" transform="translate(-137.137 -33.021)" fill="none"/>
    </clipPath>
    <linearGradient id="linear-gradient-9" x1="-3.76" y1="0.967" x2="-3.732" y2="0.967" xlink:href="#linear-gradient"/>
    <clipPath id="clip-path-10">
      <path id="Path_179" data-name="Path 179" d="M181.888,39.14h2.81c4.128,0,6.867,2.313,6.867,6.3v.071c0,4.02-2.739,6.3-6.867,6.3h-2.81Zm-6.9-6.119v24.9h9.463c8.966,0,14.2-5.336,14.2-12.523v-.071c0-7.187-5.159-12.31-14.053-12.31Z" transform="translate(-174.986 -33.021)" fill="none"/>
    </clipPath>
    <linearGradient id="linear-gradient-10" x1="-4.788" y1="0.967" x2="-4.76" y2="0.967" xlink:href="#linear-gradient"/>
    <clipPath id="clip-path-11">
      <path id="Path_180" data-name="Path 180" d="M221.063,50.633v-.072a3.156,3.156,0,0,1,1.778-2.7l4.092,4.163a5.453,5.453,0,0,1-2.953,1.067c-1.708,0-2.916-1-2.916-2.455m2.348-11.278v-.072a2,2,0,0,1,1.991-2.205,1.849,1.849,0,0,1,1.922,1.992v.071c0,1.316-.853,2.277-2.633,3.06a4.509,4.509,0,0,1-1.28-2.846m-5.835-.249v.071a8.126,8.126,0,0,0,1.637,4.768c-3.381,1.53-5.052,3.879-5.052,6.974v.071c0,4.519,3.807,7.187,8.894,7.187a11.852,11.852,0,0,0,7.4-2.526l2.562,2.6,4.661-3.344-3.344-3.308a47.155,47.155,0,0,0,3.273-5.266l-4.554-2.277A37.481,37.481,0,0,1,230.7,48l-2.776-2.7c2.918-1.352,4.874-3.415,4.874-6.475V38.75c0-3.629-2.881-6.4-7.4-6.4-4.874,0-7.826,3.13-7.826,6.76" transform="translate(-214.16 -32.346)" fill="none"/>
    </clipPath>
    <linearGradient id="linear-gradient-11" x1="-5.873" y1="0.951" x2="-5.845" y2="0.951" xlink:href="#linear-gradient"/>
    <clipPath id="clip-path-12">
      <path id="Path_181" data-name="Path 181" d="M254.631,45.3v.072c0,7.542,5.8,12.879,13.554,12.879A16.833,16.833,0,0,0,279,54.4V43.2H267.545v5.052h4.91v3.024a7.04,7.04,0,0,1-3.985,1.032,6.578,6.578,0,0,1-6.76-6.9v-.071a6.541,6.541,0,0,1,6.367-6.831,8.791,8.791,0,0,1,6.014,2.348l4.055-4.873a14.52,14.52,0,0,0-10.1-3.629c-7.721,0-13.412,5.692-13.412,12.95" transform="translate(-254.631 -32.346)" fill="none"/>
    </clipPath>
    <linearGradient id="linear-gradient-12" x1="-6.779" y1="0.95" x2="-6.752" y2="0.95" xlink:href="#linear-gradient"/>
    <clipPath id="clip-path-13">
      <path id="Path_182" data-name="Path 182" d="M299.768,39h4.517c2.314,0,3.737,1,3.737,2.953v.071c0,1.815-1.352,2.953-3.7,2.953h-4.554Zm-6.9-5.977v24.9h6.9V50.382h3.023l5.018,7.542h7.969l-5.941-8.681a7.878,7.878,0,0,0,5.124-7.649v-.071a7.723,7.723,0,0,0-2.206-5.8c-1.673-1.708-4.306-2.7-8.112-2.7Z" transform="translate(-292.866 -33.021)" fill="none"/>
    </clipPath>
    <linearGradient id="linear-gradient-13" x1="-8.281" y1="0.969" x2="-8.253" y2="0.969" xlink:href="#linear-gradient"/>
    <clipPath id="clip-path-14">
      <path id="Path_183" data-name="Path 183" d="M333.457,45.3v-.071a6.346,6.346,0,0,1,6.3-6.653,6.473,6.473,0,0,1,6.405,6.724v.072a6.355,6.355,0,0,1-6.333,6.653,6.465,6.465,0,0,1-6.368-6.725m-7.08,0v.072c0,7.151,5.692,12.879,13.376,12.879S353.2,52.447,353.2,45.3v-.071c0-7.151-5.692-12.879-13.377-12.879s-13.448,5.8-13.448,12.95" transform="translate(-326.377 -32.346)" fill="none"/>
    </clipPath>
    <linearGradient id="linear-gradient-14" x1="-7.997" y1="0.945" x2="-7.972" y2="0.945" xlink:href="#linear-gradient"/>
    <clipPath id="clip-path-15">
      <path id="Path_184" data-name="Path 184" d="M379.842,32.924l-4.8,14.48L370.7,33h-7.293l8.325,25.082h6.013l4.98-14.337,5.017,14.337h6.013L402.078,33h-7.151L390.586,47.4l-4.8-14.48Z" transform="translate(-363.405 -32.924)" fill="none"/>
    </clipPath>
    <linearGradient id="linear-gradient-15" x1="-6.414" y1="0.931" x2="-6.396" y2="0.931" xlink:href="#linear-gradient"/>
  </defs>
  <g id="Group_13428" data-name="Group 13428" transform="translate(17899 21932)">
    <g id="Group_168" data-name="Group 168" transform="translate(-17863.318 -21921.961)">
      <g id="Group_167" data-name="Group 167" clip-path="url(#clip-path)">
        <rect id="Rectangle_182" data-name="Rectangle 182" width="14.6" height="9.083" transform="translate(0 0)" fill="url(#linear-gradient)"/>
      </g>
    </g>
    <g id="Group_170" data-name="Group 170" transform="translate(-17880.883 -21887.59)">
      <g id="Group_169" data-name="Group 169" clip-path="url(#clip-path-2)">
        <rect id="Rectangle_183" data-name="Rectangle 183" width="0.257" height="0.125" transform="translate(0 0)" fill="url(#linear-gradient-2)"/>
      </g>
    </g>
    <g id="Group_172" data-name="Group 172" transform="translate(-17899 -21932)">
      <g id="Group_171" data-name="Group 171" clip-path="url(#clip-path-3)">
        <rect id="Rectangle_184" data-name="Rectangle 184" width="38.111" height="47.27" transform="translate(0 0)" fill="url(#linear-gradient-3)"/>
      </g>
    </g>
    <g id="Group_174" data-name="Group 174" transform="translate(-17887.947 -21912.625)">
      <g id="Group_173" data-name="Group 173" clip-path="url(#clip-path-4)">
        <rect id="Rectangle_185" data-name="Rectangle 185" width="40.094" height="29.891" transform="translate(0 0)" fill="url(#linear-gradient-4)"/>
      </g>
    </g>
    <g id="Group_176" data-name="Group 176" transform="translate(-17873.805 -21896.188)">
      <g id="Group_175" data-name="Group 175" clip-path="url(#clip-path-5)">
        <rect id="Rectangle_186" data-name="Rectangle 186" width="0.007" height="0.005" transform="translate(0 0)" fill="url(#linear-gradient-5)"/>
      </g>
    </g>
    <g id="Group_178" data-name="Group 178" transform="translate(-17889.781 -21927.02)">
      <g id="Group_177" data-name="Group 177" clip-path="url(#clip-path-6)">
        <rect id="Rectangle_187" data-name="Rectangle 187" width="41.922" height="43.711" transform="translate(0 0)" fill="url(#linear-gradient-6)"/>
      </g>
    </g>
    <g id="Group_180" data-name="Group 180" transform="translate(-17843.463 -21907.637)">
      <g id="Group_179" data-name="Group 179" clip-path="url(#clip-path-7)">
        <rect id="Rectangle_188" data-name="Rectangle 188" width="21.993" height="27.126" transform="translate(-3.161 0.408) rotate(-7.352)" fill="url(#linear-gradient-7)"/>
      </g>
    </g>
    <g id="Group_182" data-name="Group 182" transform="translate(-17821.549 -21907.637)">
      <g id="Group_181" data-name="Group 181" clip-path="url(#clip-path-8)">
        <rect id="Rectangle_189" data-name="Rectangle 189" width="23.229" height="27.285" transform="translate(-3.161 0.408) rotate(-7.352)" fill="url(#linear-gradient-8)"/>
      </g>
    </g>
    <g id="Group_184" data-name="Group 184" transform="translate(-17797.822 -21907.637)">
      <g id="Group_183" data-name="Group 183" clip-path="url(#clip-path-9)">
        <rect id="Rectangle_190" data-name="Rectangle 190" width="26.51" height="27.708" transform="translate(-3.161 0.408) rotate(-7.352)" fill="url(#linear-gradient-9)"/>
      </g>
    </g>
    <g id="Group_186" data-name="Group 186" transform="translate(-17769.898 -21907.637)">
      <g id="Group_185" data-name="Group 185" clip-path="url(#clip-path-10)">
        <rect id="Rectangle_191" data-name="Rectangle 191" width="26.652" height="27.727" transform="matrix(0.992, -0.128, 0.128, 0.992, -3.161, 0.408)" fill="url(#linear-gradient-10)"/>
      </g>
    </g>
    <g id="Group_188" data-name="Group 188" transform="translate(-17740.996 -21908.135)">
      <g id="Group_187" data-name="Group 187" clip-path="url(#clip-path-11)">
        <rect id="Rectangle_192" data-name="Rectangle 192" width="26.638" height="28.696" transform="translate(-3.287 0.424) rotate(-7.352)" fill="url(#linear-gradient-11)"/>
      </g>
    </g>
    <g id="Group_190" data-name="Group 190" transform="translate(-17711.139 -21908.135)">
      <g id="Group_189" data-name="Group 189" clip-path="url(#clip-path-12)">
        <rect id="Rectangle_193" data-name="Rectangle 193" width="27.484" height="28.806" transform="translate(-3.287 0.424) rotate(-7.352)" fill="url(#linear-gradient-12)"/>
      </g>
    </g>
    <g id="Group_192" data-name="Group 192" transform="translate(-17682.928 -21907.637)">
      <g id="Group_191" data-name="Group 191" clip-path="url(#clip-path-13)">
        <rect id="Rectangle_194" data-name="Rectangle 194" width="25.91" height="27.631" transform="translate(-3.161 0.408) rotate(-7.352)" fill="url(#linear-gradient-13)"/>
      </g>
    </g>
    <g id="Group_194" data-name="Group 194" transform="translate(-17658.205 -21908.135)">
      <g id="Group_193" data-name="Group 193" clip-path="url(#clip-path-14)">
        <rect id="Rectangle_195" data-name="Rectangle 195" width="29.919" height="29.12" transform="matrix(0.992, -0.128, 0.128, 0.992, -3.287, 0.424)" fill="url(#linear-gradient-14)"/>
      </g>
    </g>
    <g id="Group_196" data-name="Group 196" transform="translate(-17630.887 -21907.709)">
      <g id="Group_195" data-name="Group 195" clip-path="url(#clip-path-15)">
        <rect id="Rectangle_196" data-name="Rectangle 196" width="41.574" height="29.895" transform="matrix(0.992, -0.128, 0.128, 0.992, -3.192, 0.412)" fill="url(#linear-gradient-15)"/>
      </g>
    </g>
  </g>
</svg>
