<svg id="Layer_1" data-name="Layer 1" xmlns="http://www.w3.org/2000/svg" xmlns:xlink="http://www.w3.org/1999/xlink" viewBox="0 0 595.28 841.89"><defs><style>.cls-1{fill:url(#linear-gradient);}.cls-2{fill:url(#linear-gradient-2);}.cls-3{fill:url(#linear-gradient-3);}.cls-4{fill:url(#linear-gradient-4);}.cls-5{fill:url(#New_Gradient_Swatch);}.cls-6{fill:url(#New_Gradient_Swatch-2);}.cls-7{fill:url(#linear-gradient-5);}.cls-8{fill:url(#linear-gradient-6);}.cls-9{fill:url(#linear-gradient-7);}.cls-10{fill:url(#linear-gradient-8);}.cls-11{fill:url(#linear-gradient-9);}.cls-12{fill:url(#linear-gradient-10);}.cls-13{fill:url(#linear-gradient-11);}.cls-14{fill:url(#linear-gradient-12);}.cls-15{fill:url(#linear-gradient-13);}</style><linearGradient id="linear-gradient" x1="140.51" y1="400.06" x2="160.3" y2="400.06" gradientUnits="userSpaceOnUse"><stop offset="0" stop-color="#007ac1"/><stop offset="1" stop-color="#0a4e8a"/></linearGradient><linearGradient id="linear-gradient-2" x1="116.71" y1="440.58" x2="117.05" y2="440.58" xlink:href="#linear-gradient"/><linearGradient id="linear-gradient-3" x1="92.15" y1="412.33" x2="143.8" y2="412.33" xlink:href="#linear-gradient"/><linearGradient id="linear-gradient-4" x1="107.13" y1="426.82" x2="161.47" y2="426.82" xlink:href="#linear-gradient"/><linearGradient id="New_Gradient_Swatch" x1="126.3" y1="428.84" x2="126.31" y2="428.84" gradientUnits="userSpaceOnUse"><stop offset="0.23" stop-color="#00a652"/><stop offset="1" stop-color="#8cc540"/></linearGradient><linearGradient id="New_Gradient_Swatch-2" x1="104.64" y1="416.66" x2="161.36" y2="416.66" xlink:href="#New_Gradient_Swatch"/><linearGradient id="linear-gradient-5" x1="89.08" y1="441.96" x2="498.98" y2="389.07" xlink:href="#linear-gradient"/><linearGradient id="linear-gradient-6" x1="89.58" y1="445.84" x2="499.48" y2="392.95" xlink:href="#linear-gradient"/><linearGradient id="linear-gradient-7" x1="90.14" y1="450.21" x2="500.05" y2="397.32" xlink:href="#linear-gradient"/><linearGradient id="linear-gradient-8" x1="90.62" y1="453.92" x2="500.53" y2="401.03" xlink:href="#linear-gradient"/><linearGradient id="linear-gradient-9" x1="82.53" y1="461.64" x2="492.43" y2="408.75" xlink:href="#linear-gradient"/><linearGradient id="linear-gradient-10" x1="75.92" y1="467.52" x2="485.83" y2="414.63" xlink:href="#linear-gradient"/><linearGradient id="linear-gradient-11" x1="76.5" y1="472.01" x2="486.41" y2="419.12" xlink:href="#linear-gradient"/><linearGradient id="linear-gradient-12" x1="77.09" y1="476.6" x2="487" y2="423.71" xlink:href="#linear-gradient"/><linearGradient id="linear-gradient-13" x1="77.76" y1="481.72" x2="487.66" y2="428.83" xlink:href="#linear-gradient"/></defs><path class="cls-1" d="M140.51,397.53l4.91,3.54.93.33-.09.27,5.14,3.71c0-.08.07-.15.1-.22l.84-1.7,4,1.4,3.91,1.35c-.17-.46-.32-.93-.47-1.39l-.37-1.12L146,393.9Z"/><path class="cls-2" d="M117,440.49l-.25.17.34-.17Z"/><path class="cls-3" d="M106,443.75c.6-.28,1.16-.54,1.71-.84l1.56-.85c.94-.51,1.9-1,2.85-1.57h-2L99.43,408,127.25,388l11.08,8,5.47-3.63-16.55-12-17.91,13V385h-5.69v12.41l-11.5,8.37,12.53,38.56C105.11,444.15,105.54,444,106,443.75Z"/><path class="cls-4" d="M159.61,408.64l-4-1.41-1.95-.67-.15.31,1.6,1.16-10.62,32.46h-22c-1.14.64-2.29,1.26-3.46,1.85a81,81,0,0,1-11.88,4.73H149l12.52-38.54A2.39,2.39,0,0,1,159.61,408.64Z"/><polygon class="cls-5" points="126.31 428.84 126.3 428.84 126.31 428.85 126.31 428.84"/><path class="cls-6" d="M161.29,405.93c-.2-.53-.37-1.07-.55-1.6-1.78-5.41-3.57-10.81-5.31-16.23a1.31,1.31,0,0,0-2.15-.73c-1.47,1-3,2-4.48,3l-11.05,7.32a1.22,1.22,0,0,0-.61,1.27,1.2,1.2,0,0,0,.91,1l4.58,1.58c.62.21,1.24.44,1.87.67l-.17.51c-.28.8-.55,1.61-.82,2.42h0c-.29.64-.58,1.28-.86,1.92l-1,2.25h0l0,0a2.17,2.17,0,0,0-.23.3c-.27.54-.5,1.11-.79,1.65-1.06,2-2.06,4-3.21,5.87-.52.87-1.06,1.71-1.61,2.55a19,19,0,0,1-1.82-2.75,15.22,15.22,0,0,1-1.53-4.2q-.09-.46-.18-1a1.67,1.67,0,0,0-.24.08c-1,.48-2,.95-3,1.45-.22.11-.29.05-.33-.15-.16-.63-.32-1.26-.47-1.89-.06-.24-.09-.48-.14-.76l-.32.15-1.66.81L123,413l-3.69,1.81c-1.08.53-2.14,1.06-3.22,1.57-.2.1-.22.21-.15.38.21.57.38,1.16.63,1.71.49,1,1,2.08,1.55,3.06a17.65,17.65,0,0,0,6.76,6.66c.45.25.94.44,1.42.66l-.11-.11c-.72-.64-1.47-1.24-2.15-1.91a25,25,0,0,1-4.26-5.6,24.58,24.58,0,0,1-1.54-3.34c0-.16,0-.24.13-.31l1-.5,3.14-1.55,3.28-1.6,1.05-.5.28.57a.2.2,0,0,1-.1.3l-.47.21-3.1,1.53-3.16,1.54c-.32.16-.32.17-.21.52,0,.05,0,.1,0,.14a22.36,22.36,0,0,0,2.55,5.25,17.89,17.89,0,0,0,5.71,5.58A67.56,67.56,0,0,1,115.3,439.9c-2.35,1.49-4.82,2.78-7.26,4.11-1,.55-2.08,1-3.1,1.51-.15.07-.2.34-.3.51.19.08.37.18.56.24s.16,0,.23-.06a79,79,0,0,0,12.77-5,73.59,73.59,0,0,0,33.38-33.85c.37-.78.76-1.56,1.15-2.35l1.08.37,6,2.07a1.11,1.11,0,0,0,1.21-.27A1.14,1.14,0,0,0,161.29,405.93ZM125.8,425.34a23.81,23.81,0,0,1-3.4-6.14c-.09-.25,0-.35.19-.46L126.2,417l4.61-2.27c.14-.07.22-.06.29.09a23.16,23.16,0,0,0,2.18,3.65,23.89,23.89,0,0,0,1.86,2.25,69.94,69.94,0,0,1-6.34,8A24.25,24.25,0,0,1,125.8,425.34Z"/><path class="cls-7" d="M167.42,413.32h9.36v25.56h16.35v8.19H167.42Z"/><path class="cls-8" d="M197.13,413.32h27.14v8H206.38v5.11h16.21v7.37H206.38v5.36h18.14v7.95H197.13Z"/><path class="cls-9" d="M229.29,413.32H238l13.89,17.84V413.32h9.26v33.75H253l-14.42-18.51v18.51h-9.25Z"/><path class="cls-10" d="M267.13,413.32h13c12.06,0,19.05,6.94,19.05,16.68v.1c0,9.74-7.09,17-19.24,17H267.13Zm13.17,25.46c5.59,0,9.31-3.09,9.31-8.54v-.09c0-5.4-3.72-8.54-9.31-8.54h-3.81v17.17Z"/><path class="cls-11" d="M328.39,444.23a16,16,0,0,1-10,3.42c-6.89,0-12.05-3.61-12.05-9.74v-.09c0-4.2,2.26-7.38,6.85-9.46a10.94,10.94,0,0,1-2.22-6.46v-.09c0-4.92,4-9.17,10.61-9.17,6.12,0,10,3.76,10,8.68v.1c0,4.15-2.66,6.94-6.61,8.78l3.76,3.66a49.73,49.73,0,0,0,3.18-5.35l6.18,3.08a64.2,64.2,0,0,1-4.44,7.14l4.53,4.49-6.31,4.53Zm-4.77-4.92-5.55-5.64a4.28,4.28,0,0,0-2.41,3.66v.1c0,2,1.64,3.33,4,3.33A7.37,7.37,0,0,0,323.62,439.31Zm.53-17.46v-.09a2.5,2.5,0,0,0-2.6-2.7,2.71,2.71,0,0,0-2.7,3v.09a6.1,6.1,0,0,0,1.73,3.86C323,424.94,324.15,423.64,324.15,421.85Z"/><path class="cls-12" d="M346.78,430.29v-.09c0-9.84,7.71-17.56,18.18-17.56a19.69,19.69,0,0,1,13.69,4.92l-5.49,6.61A11.9,11.9,0,0,0,365,421c-4.87,0-8.63,4.09-8.63,9.25v.1c0,5.45,3.8,9.36,9.16,9.36a9.6,9.6,0,0,0,5.4-1.4v-4.1h-6.66v-6.85h15.53v15.19a22.82,22.82,0,0,1-14.66,5.21C354.64,447.75,346.78,440.52,346.78,430.29Z"/><path class="cls-13" d="M385,413.32h16c5.15,0,8.72,1.35,11,3.66a10.47,10.47,0,0,1,3,7.86v.1A10.69,10.69,0,0,1,408,435.31l8.05,11.76h-10.8l-6.8-10.22h-4.1v10.22H385Zm15.53,16.2c3.18,0,5-1.54,5-4v-.1c0-2.65-1.93-4-5.07-4h-6.12v8.1Z"/><path class="cls-14" d="M418.53,430.29v-.09c0-9.7,7.81-17.56,18.22-17.56s18.13,7.77,18.13,17.46v.1c0,9.69-7.81,17.55-18.22,17.55S418.53,440,418.53,430.29Zm26.81,0v-.09c0-4.87-3.52-9.12-8.68-9.12s-8.54,4.15-8.54,9v.1c0,4.87,3.52,9.11,8.63,9.11S445.34,435.16,445.34,430.29Z"/><path class="cls-15" d="M455.55,413.32h9.89l5.88,19.53,6.51-19.63h8.05l6.52,19.63,5.88-19.53H508l-11.28,34h-8.15l-6.8-19.43L475,447.31h-8.15Z"/></svg>