<svg id="Group_2" data-name="Group 2" xmlns="http://www.w3.org/2000/svg" width="154.089" height="128.322" viewBox="0 0 154.089 128.322">
  <path id="Path_1" data-name="Path 1" d="M221.7,98.22c5.949-1.115,12.081-2.045,18.03-2.6a15.419,15.419,0,0,1,10.6,2.974,17.467,17.467,0,0,1,6.691,11.153,15.361,15.361,0,0,1,8.551,2.045,17.141,17.141,0,0,1,7.621,9.666,13.862,13.862,0,0,1,.743,4.832v44.423a18.715,18.715,0,0,1-1.673,7.063,16.434,16.434,0,0,1-8.922,8.736,16.744,16.744,0,0,1-4.089,1.115c-10.6,1.487-21,3.345-31.6,5.019a22.723,22.723,0,0,1-.372-6.134,10.845,10.845,0,0,1,.372-2.417c9.479-1.673,19.145-3.16,28.624-4.647a12.141,12.141,0,0,0,4.461-1.115,8.825,8.825,0,0,0,4.461-7.621V129.448c0-1.859.185-3.9-.372-5.576a7.6,7.6,0,0,0-5.949-5.576,15.146,15.146,0,0,0-4.089.185c-10.781,1.3-21.375,3.345-32.156,5.39-5.949,1.3-11.9,2.417-17.844,3.9a314.485,314.485,0,0,1-34.758,5.576,137.234,137.234,0,0,1-17.472.743,7.331,7.331,0,0,0-4.647,1.859,9.306,9.306,0,0,0-2.974,6.691v39.591a11.454,11.454,0,0,0,.185,2.6,8.912,8.912,0,0,0,3.16,5.577,6,6,0,0,0,3.9,1.487c5.762.372,11.71.372,17.472.185,6.134-.372,12.268-.93,18.215-1.673a43.954,43.954,0,0,1-.185,8.551c-10.966,1.3-21.932,2.23-32.9,1.673a36.591,36.591,0,0,1-6.319-.743,15.8,15.8,0,0,1-8.736-6.319,19.745,19.745,0,0,1-2.974-7.063,42.557,42.557,0,0,1-4.832-.558,15.7,15.7,0,0,1-9.851-7.992,20.607,20.607,0,0,1-2.23-8.179V128.33c0-.93.185-2.045.185-2.974a19.206,19.206,0,0,1,6.134-10.781,15.89,15.89,0,0,1,9.479-3.345,150.764,150.764,0,0,0,24.164-1.487c8.922-1.115,17.844-2.788,26.579-4.647,12.082-2.417,23.607-4.832,35.316-6.877Zm.557,8.364c-12.081,2.045-23.977,4.647-35.873,7.249-9.666,2.045-19.33,3.717-29.183,4.832a178.457,178.457,0,0,1-19.889,1.115,12.3,12.3,0,0,0-2.6.185,8.119,8.119,0,0,0-5.39,5.576,18.821,18.821,0,0,0-.372,5.576V167.55a20.247,20.247,0,0,0,.185,3.345,7.8,7.8,0,0,0,7.992,6.877v-35.5a17.618,17.618,0,0,1,5.762-13.011,15.415,15.415,0,0,1,10.036-3.9,157.208,157.208,0,0,0,22.862-1.3c7.063-.93,13.94-2.045,20.817-3.345,5.39-1.115,10.966-2.417,16.357-3.532,11.9-2.6,23.792-4.832,35.873-6.691a8.707,8.707,0,0,0-3.345-5.39,7.116,7.116,0,0,0-4.647-1.3c-6.5.745-12.451,1.861-18.585,2.79Z" transform="translate(-119.839 -95.548)" fill="#fff"/>
  <path id="Path_2" data-name="Path 2" d="M484.966,190.83a3.3,3.3,0,0,1,3.16.93,2.939,2.939,0,0,1-.743,4.089,2,2,0,0,1-1.487.372c-5.949.93-11.9,1.673-17.658,2.788a3.227,3.227,0,0,1-2.6-.558,2.734,2.734,0,0,1-.93-2.6,2.569,2.569,0,0,1,2.045-2.23c5.947-1.116,12.081-1.859,18.215-2.789Z" transform="translate(-350.208 -159.161)" fill="#fff"/>
  <path id="Path_3" data-name="Path 3" d="M350.669,237.227a16.21,16.21,0,0,1,12.826,4.275,16.485,16.485,0,0,1,3.9,6.134,14.924,14.924,0,0,1,0,9.851,15.53,15.53,0,0,1-16.915,10.41,14.8,14.8,0,0,1-11.153-7.434,15.5,15.5,0,0,1-.557-15.055,16.3,16.3,0,0,1,11.9-8.18Zm.558,5.575a10.164,10.164,0,0,0-8.179,6.691,10.275,10.275,0,0,0,.185,7.063,9.842,9.842,0,0,0,4.461,5.019,8.938,8.938,0,0,0,6.134,1.115,9.558,9.558,0,0,0,5.39-2.417,11.572,11.572,0,0,0,3.345-5.577,9.727,9.727,0,0,0-.93-6.506,10.225,10.225,0,0,0-4.647-4.647,9.966,9.966,0,0,0-5.76-.743Z" transform="translate(-264.981 -190.13)" fill="#fff"/>
  <path id="Path_4" data-name="Path 4" d="M243.95,346.267c.743,0,1.487-.185,2.417-.185a2.91,2.91,0,0,1,2.23,3.717,2.8,2.8,0,0,1-2.6,1.859c-6.134.372-12.268.557-18.4.372a2.925,2.925,0,0,1-2.6-3.532,2.96,2.96,0,0,1,2.788-2.23,117.476,117.476,0,0,0,16.172,0Z" transform="translate(-190.047 -262.925)" fill="#fff"/>
  <path id="Path_5" data-name="Path 5" d="M352.583,351.484a3.435,3.435,0,0,1,3.16-2.045,3.212,3.212,0,0,1,2.788,3.16v30.3c2.417-2.23,4.832-4.647,7.249-6.877a3.089,3.089,0,1,1,4.275,4.461c-4.089,4.089-8.364,7.992-12.453,12.081a2.987,2.987,0,0,1-2.045.93H355a2.832,2.832,0,0,1-2.23-1.3c-3.9-3.9-7.807-7.992-11.524-11.9a3.134,3.134,0,0,1,3.9-4.832c.372.185.743.743,1.115,1.115,2.045,2.045,4.089,4.275,6.134,6.319V353.342a6.985,6.985,0,0,1,.185-1.858Z" transform="translate(-267.268 -265.169)" fill="#fff"/>
</svg>
