<svg id="Component_9_1" data-name="Component 9 – 1" xmlns="http://www.w3.org/2000/svg" width="25.26" height="27.203" viewBox="0 0 25.26 27.203">
  <path id="Path_14" data-name="Path 14" d="M139.014,38.4V35.687l4.171,4.171h-2.713a1.459,1.459,0,0,1-1.457-1.457Zm2.915,12.144a5.836,5.836,0,1,1-4.12,1.709A5.829,5.829,0,0,1,141.928,50.544Zm.227,5.343-2.283-2.74a.486.486,0,0,0-.746.622l2.427,2.912h0l0,0,0,.005.029.031.015.014.023.02.018.014.023.016.019.012.026.014.018.009.031.012.016.006.037.01.011,0,.044.007h.007l.051,0h3.4a.486.486,0,1,0,0-.972ZM122.5,60.745V36.457A1.459,1.459,0,0,1,123.955,35h14.087v3.4a2.431,2.431,0,0,0,2.429,2.429h3.4v9.027A6.8,6.8,0,0,0,138.429,62.2H123.955a1.459,1.459,0,0,1-1.457-1.457Zm10.687-2.915a.486.486,0,0,0-.486-.486h-1.943a.486.486,0,0,0,0,.972H132.7a.486.486,0,0,0,.486-.486Zm0-2.915a.486.486,0,0,0-.486-.486h-2.915a.486.486,0,1,0,0,.972H132.7a.486.486,0,0,0,.486-.486Zm3.886-5.829a.486.486,0,0,0-.486-.486H132.7a.486.486,0,0,0,0,.972h3.886a.486.486,0,0,0,.486-.486Zm4.858-2.915a.486.486,0,0,0-.486-.486h-4.858a.486.486,0,1,0,0,.972h4.858a.486.486,0,0,0,.486-.486Zm-12.144-3.4a.486.486,0,0,0,0,.972h11.658a.486.486,0,0,0,0-.972Zm-5.343-2.429a.486.486,0,0,0,.486.486h5.829a.486.486,0,1,0,0-.972h-5.829A.486.486,0,0,0,124.441,40.343Zm0,2.915a.486.486,0,0,0,.486.486h2.915a.486.486,0,1,0,0-.972h-2.915A.486.486,0,0,0,124.441,43.258Zm0,2.915a.486.486,0,0,0,.486.486h9.715a.486.486,0,0,0,0-.972h-9.715A.486.486,0,0,0,124.441,46.172Zm0,2.915a.486.486,0,0,0,.486.486h5.829a.486.486,0,1,0,0-.972h-5.829A.486.486,0,0,0,124.441,49.087Zm0,2.915a.486.486,0,0,0,.486.486h8.744a.486.486,0,0,0,0-.972h-8.744A.486.486,0,0,0,124.441,52Zm0,2.915a.486.486,0,0,0,.486.486h2.915a.486.486,0,1,0,0-.972h-2.915A.486.486,0,0,0,124.441,54.916Zm0,2.915a.486.486,0,0,0,.486.486h3.886a.486.486,0,1,0,0-.972h-3.886A.486.486,0,0,0,124.441,57.831Z" transform="translate(-122.498 -35)" fill="#fff"/>
</svg>
