<svg id="Component_18_1" data-name="Component 18 – 1" xmlns="http://www.w3.org/2000/svg" width="97.461" height="89.391" viewBox="0 0 97.461 89.391">
  <path id="Path_21" data-name="Path 21" d="M577.727,427.21c-2.391,0-4.325,6.381-4.325,8.756A4.315,4.315,0,0,0,576.219,440v5.208h3V440a4.3,4.3,0,0,0,2.817-4.035c0-2.376-1.934-8.756-4.309-8.756Z" transform="translate(-484.575 -356.093)" fill="#05508d"/>
  <path id="Path_22" data-name="Path 22" d="M82.807,427.21c-2.391,0-4.325,6.381-4.325,8.756A4.314,4.314,0,0,0,81.3,440v5.208h3V440a4.3,4.3,0,0,0,2.817-4.035c0-2.376-1.934-8.756-4.309-8.756Z" transform="translate(-78.482 -356.093)" fill="#05508d"/>
  <path id="Path_23" data-name="Path 23" d="M141.357,212.259h9.3V198.1a8.33,8.33,0,1,1,16.66,0v14.163h9.3V142.97l-35.271,8.5Zm24.244-57.9h6.472v5.848H165.6Zm0,8.36h6.472v5.848H165.6Zm0,8.36h6.472v5.848H165.6Zm0,8.36h6.472v5.848H165.6Zm-9.853-25.082h6.472v5.848h-6.472Zm0,8.36h6.472v5.848h-6.472Zm0,8.36h6.472v5.848h-6.472Zm0,8.36h6.472v5.848h-6.472ZM145.88,154.36h6.472v5.848H145.88Zm0,8.36h6.472v5.848H145.88Zm0,8.36h6.472v5.848H145.88Zm0,8.36h6.472v5.848H145.88Z" transform="translate(-130.071 -122.868)" fill="#05508d"/>
  <path id="Path_24" data-name="Path 24" d="M256.989,469.46a1.507,1.507,0,1,0,1.507,1.507A1.531,1.531,0,0,0,256.989,469.46Z" transform="translate(-223.715 -390.76)" fill="#05508d"/>
  <path id="Path_25" data-name="Path 25" d="M297.56,49.713l10.218-2.467v4.493H339V59.2H307.778v5H339v7.462H307.778v5H339v7.462H307.778v5H339v7.462H307.778v5H339v7.462H307.778v11.315h35.544V30.966H297.561Zm4.325-10.431h37.1v7.462h-37.1Z" transform="translate(-258.241 -30.966)" fill="#05508d"/>
</svg>
