<svg id="Component_10_1" data-name="Component 10 – 1" xmlns="http://www.w3.org/2000/svg" width="21.194" height="28.229" viewBox="0 0 21.194 28.229">
  <path id="Path_11" data-name="Path 11" d="M447.5,33.613h4.337a1.724,1.724,0,0,0-.145-.176l-4.6-4.6a1.713,1.713,0,0,0-.178-.148v4.333a.589.589,0,0,0,.589.589Z" transform="translate(-431.016 -28.315)" fill="#fff"/>
  <path id="Path_12" data-name="Path 12" d="M172.645,28.289a1.768,1.768,0,0,1-1.766-1.766V21.813H157.928a1.771,1.771,0,0,0-1.766,1.766v24.7a1.771,1.771,0,0,0,1.766,1.766H175.59a1.769,1.769,0,0,0,1.731-1.4l.035-20.352Zm1.369,11.09-1.429-1v8.757h-4.121v-4.71h-3.532v4.71H160.81V38.466l-1.308.913-.674-.965,3.159-2.2V34.186h1.177v1.2l3.593-2.507,7.93,5.533Z" transform="translate(-156.162 -21.813)" fill="#fff"/>
</svg>
