<svg id="Component_13_1" data-name="Component 13 – 1" xmlns="http://www.w3.org/2000/svg" width="22.633" height="27.398" viewBox="0 0 22.633 27.398">
  <path id="Path_15" data-name="Path 15" d="M193.279,94.236h6.552v10.125a1.788,1.788,0,0,1-1.787,1.787H185.536a1.788,1.788,0,0,1-1.787-1.787V80.537a1.788,1.788,0,0,1,1.787-1.787h12.508a1.788,1.788,0,0,1,1.787,1.787V90.662h-6.552a1.787,1.787,0,1,0,0,3.574ZM206.174,92l-4.169-3.574a.6.6,0,0,0-.983.452v2.978H193.28a.6.6,0,1,0,0,1.191h7.742v2.978a.6.6,0,0,0,.983.452l4.169-3.574a.6.6,0,0,0,0-.9Z" transform="translate(-183.749 -78.75)" fill="#fff"/>
</svg>
