<svg id="Component_19_1" data-name="Component 19 – 1" xmlns="http://www.w3.org/2000/svg" width="85.956" height="86.088" viewBox="0 0 85.956 86.088">
  <path id="Path_26" data-name="Path 26" d="M88.85,15.869a1.329,1.329,0,0,1-1.318-1.318V4.962A1.329,1.329,0,0,1,88.85,3.644h6.012A1.338,1.338,0,0,1,96.18,4.962v9.589a1.285,1.285,0,0,1-.458.982h5.03a1.321,1.321,0,0,1-.444-.982V4.962a1.32,1.32,0,0,1,1.318-1.318h6a1.329,1.329,0,0,1,1.318,1.318v9.589a1.285,1.285,0,0,1-.458.982h4.828V2.756a2.8,2.8,0,0,0-2.784-2.8H73.195a2.8,2.8,0,0,0-2.8,2.8v83.29H86.469V22.23a6.706,6.706,0,0,1,4.6-6.361ZM83.4,79.563a1.32,1.32,0,0,1-1.318,1.318h-6a1.323,1.323,0,0,1-1.332-1.318V69.987a1.323,1.323,0,0,1,1.332-1.318h6A1.32,1.32,0,0,1,83.4,69.987Zm0-16.246a1.329,1.329,0,0,1-1.318,1.318h-6a1.332,1.332,0,0,1-1.332-1.318V53.728a1.332,1.332,0,0,1,1.332-1.318h6A1.329,1.329,0,0,1,83.4,53.728Zm0-16.26a1.32,1.32,0,0,1-1.318,1.318h-6a1.323,1.323,0,0,1-1.332-1.318V37.481a1.323,1.323,0,0,1,1.332-1.318h6A1.32,1.32,0,0,1,83.4,37.481Zm0-16.26a1.32,1.32,0,0,1-1.318,1.318h-6A1.323,1.323,0,0,1,74.756,30.8V21.22A1.323,1.323,0,0,1,76.087,19.9h6A1.32,1.32,0,0,1,83.4,21.22Zm0-16.246a1.329,1.329,0,0,1-1.318,1.318h-6a1.332,1.332,0,0,1-1.332-1.318V4.961a1.332,1.332,0,0,1,1.332-1.318h6A1.329,1.329,0,0,1,83.4,4.961Z" transform="translate(-70.398 0.042)" fill="#05508d"/>
  <path id="Path_27" data-name="Path 27" d="M467.858,4.93,444.215,11a2.565,2.565,0,0,0-1.937,2.5V19.67h4.358V14.99a1.243,1.243,0,0,1,1.237-1.237h5.635a1.252,1.252,0,0,1,1.238,1.237v8.984a1.175,1.175,0,0,1-.565,1.009,6.711,6.711,0,0,1,.148,1.385v2.946a1.2,1.2,0,0,1,.417.914V39.2a1.223,1.223,0,0,1-.417.914v4.425a1.221,1.221,0,0,1,.417.914v8.984a1.222,1.222,0,0,1-.417.914v4.425a1.221,1.221,0,0,1,.417.914V69.66a1.2,1.2,0,0,1-.417.914v4.438a1.2,1.2,0,0,1,.417.914V84.9a1.223,1.223,0,0,1-.417.914v4.371h16.744V7.431a2.58,2.58,0,0,0-3.214-2.5ZM466.715,84.9a1.252,1.252,0,0,1-1.237,1.237h-5.635A1.243,1.243,0,0,1,458.6,84.9V75.927a1.234,1.234,0,0,1,1.237-1.237h5.635a1.243,1.243,0,0,1,1.237,1.237Zm0-15.238a1.243,1.243,0,0,1-1.237,1.237h-5.635A1.234,1.234,0,0,1,458.6,69.66V60.689a1.243,1.243,0,0,1,1.237-1.237h5.635a1.252,1.252,0,0,1,1.237,1.237Zm0-15.224a1.252,1.252,0,0,1-1.237,1.237h-5.635a1.243,1.243,0,0,1-1.237-1.237V45.452a1.243,1.243,0,0,1,1.237-1.237h5.635a1.252,1.252,0,0,1,1.237,1.237Zm0-15.238a1.252,1.252,0,0,1-1.237,1.237h-5.635A1.243,1.243,0,0,1,458.6,39.2V30.227a1.234,1.234,0,0,1,1.237-1.237h5.635a1.243,1.243,0,0,1,1.237,1.237Zm0-15.224a1.24,1.24,0,0,1-1.237,1.224h-5.635a1.231,1.231,0,0,1-1.237-1.224V14.989a1.243,1.243,0,0,1,1.237-1.237h5.635a1.252,1.252,0,0,1,1.237,1.237Z" transform="translate(-385.117 -4.095)" fill="#05508d"/>
  <path id="Path_28" data-name="Path 28" d="M236.205,118.78H196.464a4.018,4.018,0,0,0-4.008,4.008V186.6h14.135V174.029h19.5V186.6h14.121V122.788a4.009,4.009,0,0,0-4.008-4.008Zm-32.293,50.538a.757.757,0,0,1-.755.755h-6.409a.748.748,0,0,1-.755-.755v-8.535a.748.748,0,0,1,.755-.755h6.409a.757.757,0,0,1,.755.755Zm0-12.665a.757.757,0,0,1-.755.755h-6.409a.748.748,0,0,1-.755-.755v-8.535a.748.748,0,0,1,.755-.755h6.409a.757.757,0,0,1,.755.755Zm0-12.665a.757.757,0,0,1-.755.755h-6.409a.748.748,0,0,1-.755-.755v-8.535a.748.748,0,0,1,.755-.755h6.409a.757.757,0,0,1,.755.755Zm0-12.664a.757.757,0,0,1-.755.755h-6.409a.748.748,0,0,1-.755-.755V122.79a.748.748,0,0,1,.755-.755h6.409a.757.757,0,0,1,.755.755Zm10.933,37.994a.757.757,0,0,1-.755.755h-6.409a.748.748,0,0,1-.755-.755v-8.535a.748.748,0,0,1,.755-.755h6.409a.757.757,0,0,1,.755.755Zm0-12.665a.757.757,0,0,1-.755.755h-6.409a.748.748,0,0,1-.755-.755v-8.535a.748.748,0,0,1,.755-.755h6.409a.757.757,0,0,1,.755.755Zm0-12.665a.757.757,0,0,1-.755.755h-6.409a.748.748,0,0,1-.755-.755v-8.535a.748.748,0,0,1,.755-.755h6.409a.757.757,0,0,1,.755.755Zm0-12.664a.757.757,0,0,1-.755.755h-6.409a.748.748,0,0,1-.755-.755V122.79a.748.748,0,0,1,.755-.755h6.409a.757.757,0,0,1,.755.755Zm10.933,37.994a.757.757,0,0,1-.755.755h-6.409a.748.748,0,0,1-.755-.755v-8.535a.748.748,0,0,1,.755-.755h6.409a.757.757,0,0,1,.755.755Zm0-12.665a.757.757,0,0,1-.755.755h-6.409a.748.748,0,0,1-.755-.755v-8.535a.748.748,0,0,1,.755-.755h6.409a.757.757,0,0,1,.755.755Zm0-12.665a.757.757,0,0,1-.755.755h-6.409a.748.748,0,0,1-.755-.755v-8.535a.748.748,0,0,1,.755-.755h6.409a.757.757,0,0,1,.755.755Zm0-12.664a.757.757,0,0,1-.755.755h-6.409a.748.748,0,0,1-.755-.755V122.79a.748.748,0,0,1,.755-.755h6.409a.757.757,0,0,1,.755.755Zm10.932,37.994a.757.757,0,0,1-.755.755h-6.409a.748.748,0,0,1-.755-.755v-8.535a.748.748,0,0,1,.755-.755h6.409a.757.757,0,0,1,.755.755Zm0-12.665a.757.757,0,0,1-.755.755h-6.409a.748.748,0,0,1-.755-.755V148.12a.748.748,0,0,1,.755-.755h6.409a.757.757,0,0,1,.755.755Zm0-12.665a.757.757,0,0,1-.755.755h-6.409a.748.748,0,0,1-.755-.755v-8.535a.748.748,0,0,1,.755-.755h6.409a.757.757,0,0,1,.755.755Zm0-12.664a.757.757,0,0,1-.755.755h-6.409a.748.748,0,0,1-.755-.755v-8.535a.748.748,0,0,1,.755-.755h6.409a.757.757,0,0,1,.755.755Z" transform="translate(-173.695 -100.516)" fill="#05508d"/>
</svg>
