<svg id="Component_20_1" data-name="Component 20 – 1" xmlns="http://www.w3.org/2000/svg" width="84.277" height="83.979" viewBox="0 0 84.277 83.979">
  <path id="Path_29" data-name="Path 29" d="M262.5,332.5h9.03v3.01H262.5Z" transform="translate(-235.409 -281.632)" fill="#05508d"/>
  <path id="Path_30" data-name="Path 30" d="M267.015,280a4.514,4.514,0,0,0-4.515,4.515v1.5h9.03v-1.5A4.514,4.514,0,0,0,267.016,280Z" transform="translate(-235.409 -238.162)" fill="#05508d"/>
  <path id="Path_31" data-name="Path 31" d="M358.75,420h9.03v18.06h-9.03Z" transform="translate(-315.106 -354.081)" fill="#05508d"/>
  <path id="Path_32" data-name="Path 32" d="M288.75,420h9.03v18.06h-9.03Z" transform="translate(-257.145 -354.081)" fill="#05508d"/>
  <path id="Path_33" data-name="Path 33" d="M262.5,210h9.03v3.01H262.5Z" transform="translate(-235.409 -180.201)" fill="#05508d"/>
  <path id="Path_34" data-name="Path 34" d="M140,166.25h6.02v4.515H140Z" transform="translate(-133.98 -143.978)" fill="#05508d"/>
  <path id="Path_35" data-name="Path 35" d="M385,332.5h9.03v3.01H385Z" transform="translate(-336.842 -281.632)" fill="#05508d"/>
  <path id="Path_36" data-name="Path 36" d="M267.015,157.5a4.514,4.514,0,0,0-4.515,4.515v1.5h9.03v-1.5a4.514,4.514,0,0,0-4.515-4.515Z" transform="translate(-235.409 -136.731)" fill="#05508d"/>
  <path id="Path_37" data-name="Path 37" d="M389.515,280A4.514,4.514,0,0,0,385,284.515v1.5h9.03v-1.5A4.514,4.514,0,0,0,389.515,280Z" transform="translate(-336.842 -238.162)" fill="#05508d"/>
  <path id="Path_38" data-name="Path 38" d="M140,288.75h6.02v4.515H140Z" transform="translate(-133.98 -245.407)" fill="#05508d"/>
  <path id="Path_39" data-name="Path 39" d="M140,210h6.02v4.515H140Z" transform="translate(-133.98 -180.201)" fill="#05508d"/>
  <path id="Path_40" data-name="Path 40" d="M132.482,52.5,121.2,61.53h16.323l13.545-9.03Z" transform="translate(-118.409 -49.791)" fill="#05508d"/>
  <path id="Path_41" data-name="Path 41" d="M394.03,162.015a4.515,4.515,0,1,0-9.03,0v1.505h9.03Z" transform="translate(-336.842 -136.731)" fill="#05508d"/>
  <path id="Path_42" data-name="Path 42" d="M105,191.728h18.06V122.5H105Zm3.01-63.209a1.505,1.505,0,0,1,1.5-1.5h9.03a1.5,1.5,0,0,1,1.5,1.5v15.05a1.5,1.5,0,0,1-1.5,1.5h-9.03a1.505,1.505,0,0,1-1.5-1.5Zm0,21.07a1.505,1.505,0,0,1,1.5-1.5h9.03a1.5,1.5,0,0,1,1.5,1.5v15.05a1.5,1.5,0,0,1-1.5,1.5h-9.03a1.505,1.505,0,0,1-1.5-1.5Zm0,21.07a1.505,1.505,0,0,1,1.5-1.5h9.03a1.5,1.5,0,0,1,1.5,1.5v15.05a1.5,1.5,0,0,1-1.5,1.5h-9.03a1.505,1.505,0,0,1-1.5-1.5Z" transform="translate(-105 -107.752)" fill="#05508d"/>
  <path id="Path_43" data-name="Path 43" d="M140,455h6.02v4.515H140Z" transform="translate(-133.98 -383.062)" fill="#05508d"/>
  <path id="Path_44" data-name="Path 44" d="M140,411.25h6.02v4.515H140Z" transform="translate(-133.98 -346.838)" fill="#05508d"/>
  <path id="Path_45" data-name="Path 45" d="M140,332.5h6.02v4.515H140Z" transform="translate(-133.98 -281.632)" fill="#05508d"/>
  <path id="Path_46" data-name="Path 46" d="M525,455h6.02v4.515H525Z" transform="translate(-452.761 -383.062)" fill="#05508d"/>
  <path id="Path_47" data-name="Path 47" d="M423.731,52.5H405.15l13.545,9.03h16.323Z" transform="translate(-353.525 -49.791)" fill="#05508d"/>
  <path id="Path_48" data-name="Path 48" d="M252.251,39.2l-3.678-2.454L227.5,50.8v69.928h7.525v-18.06h-3.01v-3.01h33.109v3.01h-3.01v18.06h7.525V50.8L252.252,39.21Zm-6.688,46.909v6.02a1.5,1.5,0,0,1-1.505,1.5h-12.04a1.505,1.505,0,0,1-1.505-1.5V83.1a7.525,7.525,0,0,1,15.05,0Zm0-21.07v6.02a1.5,1.5,0,0,1-1.505,1.5h-12.04a1.505,1.505,0,0,1-1.505-1.5v-9.03a7.525,7.525,0,0,1,15.05,0Zm21.069,21.07v6.02a1.5,1.5,0,0,1-1.5,1.5h-12.04a1.505,1.505,0,0,1-1.5-1.5V83.1a7.525,7.525,0,0,1,15.05,0Zm0-24.079v9.03a1.5,1.5,0,0,1-1.5,1.5h-12.04a1.505,1.505,0,0,1-1.5-1.5v-9.03a7.525,7.525,0,0,1,15.05,0Zm-12.04-13.545a6.019,6.019,0,1,1-1.763-4.257A6.022,6.022,0,0,1,254.592,48.489Z" transform="translate(-206.433 -36.75)" fill="#05508d"/>
  <path id="Path_49" data-name="Path 49" d="M525,288.75h6.02v4.515H525Z" transform="translate(-452.761 -245.407)" fill="#05508d"/>
  <path id="Path_50" data-name="Path 50" d="M525,411.25h6.02v4.515H525Z" transform="translate(-452.761 -346.838)" fill="#05508d"/>
  <path id="Path_51" data-name="Path 51" d="M525,210h6.02v4.515H525Z" transform="translate(-452.761 -180.201)" fill="#05508d"/>
  <path id="Path_52" data-name="Path 52" d="M525,166.25h6.02v4.515H525Z" transform="translate(-452.761 -143.978)" fill="#05508d"/>
  <path id="Path_53" data-name="Path 53" d="M385,210h9.03v3.01H385Z" transform="translate(-336.842 -180.201)" fill="#05508d"/>
  <path id="Path_54" data-name="Path 54" d="M525,332.5h6.02v4.515H525Z" transform="translate(-452.761 -281.632)" fill="#05508d"/>
  <path id="Path_55" data-name="Path 55" d="M490,122.5v69.228h18.06V122.5Zm15.05,63.209a1.5,1.5,0,0,1-1.505,1.5h-9.03a1.505,1.505,0,0,1-1.505-1.5v-15.05a1.505,1.505,0,0,1,1.505-1.5h9.03a1.5,1.5,0,0,1,1.505,1.5Zm0-21.07a1.5,1.5,0,0,1-1.505,1.5h-9.03a1.505,1.505,0,0,1-1.505-1.5v-15.05a1.505,1.505,0,0,1,1.505-1.5h9.03a1.5,1.5,0,0,1,1.505,1.5Zm0-21.07a1.5,1.5,0,0,1-1.505,1.5h-9.03a1.505,1.505,0,0,1-1.505-1.5V128.52a1.505,1.505,0,0,1,1.505-1.5h9.03a1.5,1.5,0,0,1,1.505,1.5Z" transform="translate(-423.782 -107.752)" fill="#05508d"/>
  <path id="Path_56" data-name="Path 56" d="M338.52,90.51a3.01,3.01,0,1,1-3.01-3.01,3.01,3.01,0,0,1,3.01,3.01" transform="translate(-293.371 -78.771)" fill="#05508d"/>
</svg>
