<svg id="Component_12_1" data-name="Component 12 – 1" xmlns="http://www.w3.org/2000/svg" width="23.517" height="30.192" viewBox="0 0 23.517 30.192">
  <path id="Path_8" data-name="Path 8" d="M278.182,99.155c3.333,0,6.035-3.325,6.035-7.427s-2.7-6.5-6.035-6.5-6.034,2.4-6.034,6.5S274.85,99.155,278.182,99.155Z" transform="translate(-266.424 -85.229)" fill="#fff"/>
  <path id="Path_9" data-name="Path 9" d="M221.8,315.3c-.011-.636-.026-1.816-.041-1.955-.588-5.39-5.532-7.308-11.547-7.308-.057,0-.114,0-.17,0s-.113,0-.171,0c-6.014,0-10.959,1.918-11.546,7.308-.015.139-.029,1.319-.041,1.955" transform="translate(-198.285 -288.922)" fill="#fff"/>
  <path id="Path_10" data-name="Path 10" d="M221.816,425.54a19.2,19.2,0,0,1-11.758,3.815A18.82,18.82,0,0,1,198.3,425.54" transform="translate(-198.299 -399.163)" fill="#fff"/>
</svg>
