<svg id="Component_11_1" data-name="Component 11 – 1" xmlns="http://www.w3.org/2000/svg" width="32.971" height="25.553" viewBox="0 0 32.971 25.553">
  <path id="Path_13" data-name="Path 13" d="M142.5,106.393a.885.885,0,0,1,.489.167l15.661,12.364a.853.853,0,0,1,.142,1.172.866.866,0,0,1-1.172.129l-15.146-11.952-15.146,11.952a.83.83,0,0,1-1.03-1.3l6.7-5.293v-7.238h3.3v4.637l5.667-4.469a.941.941,0,0,1,.541-.167Zm-.026,3.3,11.128,8.655v13.6H146.6V123.7h-8.243v8.243h-7.006v-13.6Z" transform="translate(-125.996 -106.392)" fill="#fff"/>
</svg>
