<svg xmlns="http://www.w3.org/2000/svg" width="121" height="162.314" viewBox="0 0 121 162.314">
  <g id="Group_153" data-name="Group 153" transform="translate(-873 -505.686)">
    <g id="Group_22" data-name="Group 22" transform="translate(6918.132 11293.686)">
      <path id="Path_57" data-name="Path 57" d="M279.183,54.008a183.534,183.534,0,0,0-49.859,58.147A104.37,104.37,0,0,0,214.149,99.4c-8.034-5.611-15.812,7.651-7.778,13.261a86,86,0,0,1,19.255,18.618c2.933,3.7,10.073,2.55,11.987-1.53a164.36,164.36,0,0,1,49.349-62.228c3.315-2.55,4.973-6.5,2.805-10.457-1.912-3.57-7.268-5.483-10.583-3.06Z" transform="translate(-6220.939 -10833.974)" fill="#05508d"/>
      <path id="Path_58" data-name="Path 58" d="M197.217,57.974a7.675,7.675,0,0,0-4.973,9.691A43.327,43.327,0,1,1,151.057,37.7a40.736,40.736,0,0,1,11.731,1.658,7.672,7.672,0,1,0,4.081-14.792A59.883,59.883,0,0,0,151.057,22.4a58.657,58.657,0,1,0,58.657,58.657,61.74,61.74,0,0,0-2.805-18.107,7.728,7.728,0,0,0-9.692-4.973Z" transform="translate(-6135.531 -10810.396)" fill="#05508d"/>
    </g>
    <ellipse id="Ellipse_35" data-name="Ellipse 35" cx="51.5" cy="3" rx="51.5" ry="3" transform="translate(882 653)" fill="#05508d"/>
  </g>
</svg>
