<svg xmlns="http://www.w3.org/2000/svg" xmlns:xlink="http://www.w3.org/1999/xlink" width="1920" height="311.445" viewBox="0 0 1920 311.445">
  <defs>
    <clipPath id="clip-path">
      <path id="Path_170" data-name="Path 170" d="M48.364,30.325,71.04,46.68l4.294,1.533-.425,1.256L98.628,66.581c.166-.337.323-.665.489-1l3.842-7.863,18.728,6.469q9.025,3.131,18.049,6.266c-.766-2.156-1.473-4.294-2.179-6.432l-1.7-5.171L73.6,13.606Q60.992,21.973,48.364,30.325" transform="translate(-48.364 -13.606)" fill="none"/>
    </clipPath>
    <linearGradient id="linear-gradient" x1="-2.444" y1="4.374" x2="-2.393" y2="4.374" gradientUnits="objectBoundingBox">
      <stop offset="0" stop-color="#0069b5"/>
      <stop offset="1" stop-color="#003d78"/>
    </linearGradient>
    <clipPath id="clip-path-2">
      <path id="Path_171" data-name="Path 171" d="M25.73,60.193c-.392.259-.776.526-1.173.785.54-.259,1.071-.526,1.607-.785Z" transform="translate(-24.557 -60.193)" fill="none"/>
    </clipPath>
    <linearGradient id="linear-gradient-2" x1="-70.565" y1="42.693" x2="-67.692" y2="42.693" xlink:href="#linear-gradient"/>
    <clipPath id="clip-path-3">
      <path id="Path_172" data-name="Path 172" d="M162.092,0,79.358,60.132V21.872H53.132V79.164L0,117.789l57.86,178.05c1.981-1,3.989-1.935,6-2.867,2.77-1.284,5.379-2.489,7.882-3.86,2.4-1.321,4.8-2.618,7.208-3.925,4.359-2.364,8.8-4.77,13.192-7.254H82.7L33.637,128.044,162.092,35.387,213.243,72.28q12.647-8.367,25.271-16.747Z" fill="none"/>
    </clipPath>
    <linearGradient id="linear-gradient-3" x1="0" y1="1.053" x2="0.019" y2="1.053" xlink:href="#linear-gradient"/>
    <clipPath id="clip-path-4">
      <path id="Path_173" data-name="Path 173" d="M228.95,27.7l7.406,5.347L187.292,182.933H85.8c-5.245,2.964-10.551,5.836-15.967,8.528a370.561,370.561,0,0,1-54.854,21.868H208.075L265.907,35.363a11.053,11.053,0,0,1-8.607.5q-9.336-3.241-18.677-6.487l-8.971-3.117c-.24.48-.466.956-.7,1.436" transform="translate(-14.982 -26.262)" fill="none"/>
    </clipPath>
    <linearGradient id="linear-gradient-4" x1="-0.276" y1="1.017" x2="-0.257" y2="1.017" xlink:href="#linear-gradient"/>
    <clipPath id="clip-path-5">
      <path id="Path_174" data-name="Path 174" d="M34.182,48.573l.009-.014-.042-.018.032.032" transform="translate(-34.15 -48.541)" fill="none"/>
    </clipPath>
    <linearGradient id="linear-gradient-5" x1="-3793.312" y1="0.5" x2="-3682.234" y2="0.5" gradientUnits="objectBoundingBox">
      <stop offset="0" stop-color="#00973e"/>
      <stop offset="0.233" stop-color="#00973e"/>
      <stop offset="1" stop-color="#89ba2b"/>
    </linearGradient>
    <clipPath id="clip-path-6">
      <path id="Path_175" data-name="Path 175" d="M110.161,183.548a110.471,110.471,0,0,1-15.671-28.36c-.416-1.122-.129-1.616.854-2.087q8.36-4.031,16.687-8.117,10.652-5.222,21.286-10.486c.651-.319,1.02-.226,1.33.434a106.427,106.427,0,0,0,10.084,16.876,99.935,99.935,0,0,0,8.6,10.352,322.625,322.625,0,0,1-29.3,36.745,116.627,116.627,0,0,1-13.871-15.357M237.078,8.228c-6.787,4.76-13.8,9.207-20.709,13.792q-25.5,16.927-51.017,33.822a5.653,5.653,0,0,0-2.789,5.882c.332,2.438,1.958,3.7,4.183,4.451,7.065,2.406,14.115,4.857,21.166,7.3,2.854.993,5.693,2.022,8.639,3.075-.342.979-.586,1.671-.826,2.373q-1.884,5.575-3.777,11.156l0-.014c-1.311,2.946-2.646,5.887-3.939,8.847-1.505,3.458-2.969,6.935-4.456,10.4l.166-.032-.1.078a8.467,8.467,0,0,0-1.076,1.357c-1.242,2.53-2.323,5.144-3.652,7.623-4.881,9.082-9.5,18.317-14.817,27.136-2.41,3.985-4.908,7.886-7.452,11.747a86.345,86.345,0,0,1-8.39-12.675,69.582,69.582,0,0,1-7.051-19.384c-.291-1.45-.554-2.909-.85-4.46a9.8,9.8,0,0,0-1.1.365c-4.548,2.216-9.11,4.4-13.617,6.7-1.007.513-1.33.24-1.556-.674-.72-2.909-1.464-5.813-2.156-8.727-.263-1.108-.411-2.244-.637-3.5-.6.263-1.053.439-1.482.651-2.558,1.256-5.1,2.535-7.66,3.782-4.954,2.415-9.918,4.8-14.868,7.222Q88.716,130.7,80.2,134.9c-4.945,2.424-9.877,4.885-14.845,7.258a1.166,1.166,0,0,0-.7,1.741c.965,2.637,1.736,5.365,2.927,7.9,2.244,4.774,4.479,9.586,7.166,14.12,7.679,12.956,17.855,23.475,31.172,30.747,2.11,1.159,4.368,2.041,6.566,3.047-.166-.175-.328-.36-.508-.517-3.315-2.927-6.778-5.7-9.927-8.8a114.224,114.224,0,0,1-19.675-25.876A108.43,108.43,0,0,1,75.3,149.1a.931.931,0,0,1,.573-1.4c1.6-.739,3.167-1.547,4.742-2.323q7.272-3.581,14.535-7.143,7.563-3.719,15.145-7.415c1.57-.766,3.158-1.5,4.821-2.281.471.956.868,1.8,1.3,2.623a.87.87,0,0,1-.476,1.362c-.711.332-1.436.646-2.142.993q-7.168,3.518-14.337,7.041c-4.848,2.373-9.715,4.719-14.559,7.111-1.5.734-1.478.794-.965,2.429.065.212.134.429.212.642a103.914,103.914,0,0,0,11.77,24.218c7,10.523,15.6,19.333,26.388,25.788a312.638,312.638,0,0,1-60.607,50.066c-10.832,6.866-22.265,12.8-33.527,18.973-4.636,2.544-9.572,4.543-14.3,6.94-.683.351-.928,1.561-1.376,2.378.859.388,1.695.822,2.586,1.122.291.092.706-.171,1.062-.282a365.5,365.5,0,0,0,58.936-23.1,335.594,335.594,0,0,0,98.465-74.187,337.177,337.177,0,0,0,55.671-82.106c1.736-3.606,3.5-7.194,5.3-10.869,1.8.614,3.412,1.164,5.024,1.722q13.755,4.772,27.5,9.549a5.526,5.526,0,0,0,7-7c-.9-2.452-1.708-4.936-2.521-7.415-8.21-24.961-16.484-49.9-24.532-74.912-.974-3.029-3.126-4.871-5.73-4.876a7.332,7.332,0,0,0-4.174,1.478" transform="translate(-12.495 -6.75)" fill="none"/>
    </clipPath>
    <linearGradient id="linear-gradient-6" x1="-0.22" y1="1.025" x2="-0.202" y2="1.025" xlink:href="#linear-gradient-5"/>
    <clipPath id="clip-path-7">
      <path id="Path_176" data-name="Path 176" d="M75.276,33.021V188.879h118.67V151.031H118.471V33.021Z" transform="translate(-75.276 -33.021)" fill="none"/>
    </clipPath>
    <linearGradient id="linear-gradient-7" x1="-2.456" y1="0.977" x2="-2.423" y2="0.977" xlink:href="#linear-gradient"/>
    <clipPath id="clip-path-8">
      <path id="Path_177" data-name="Path 177" d="M104.978,33.021V188.879H231.447V152.144H147.725V127.427H222.54V93.365H147.725v-23.6h82.6V33.021Z" transform="translate(-104.978 -33.021)" fill="none"/>
    </clipPath>
    <linearGradient id="linear-gradient-8" x1="-3.269" y1="0.975" x2="-3.237" y2="0.975" xlink:href="#linear-gradient"/>
    <clipPath id="clip-path-9">
      <path id="Path_178" data-name="Path 178" d="M241.563,33.021V115.4L177.442,33.021h-40.3V188.879h42.752v-85.5l66.568,85.5H284.31V33.021Z" transform="translate(-137.137 -33.021)" fill="none"/>
    </clipPath>
    <linearGradient id="linear-gradient-9" x1="-3.76" y1="0.967" x2="-3.732" y2="0.967" xlink:href="#linear-gradient"/>
    <clipPath id="clip-path-10">
      <path id="Path_179" data-name="Path 179" d="M218.181,71.317h17.587c25.834,0,42.974,14.475,42.974,39.414v.443c0,25.16-17.14,39.409-42.974,39.409H218.181Zm-43.2-38.3V188.88h59.222c56.115,0,88.847-33.4,88.847-78.375v-.443c0-44.978-32.289-77.04-87.951-77.04Z" transform="translate(-174.986 -33.021)" fill="none"/>
    </clipPath>
    <linearGradient id="linear-gradient-10" x1="-4.788" y1="0.967" x2="-4.76" y2="0.967" xlink:href="#linear-gradient"/>
    <clipPath id="clip-path-11">
      <path id="Path_180" data-name="Path 180" d="M257.36,146.792v-.448c0-6.238,3.338-12.245,11.128-16.923L294.1,155.477c-6.012,4.008-12.245,6.677-18.483,6.677-10.689,0-18.252-6.233-18.252-15.362m14.692-70.581v-.448c0-8.237,5.116-13.8,12.462-13.8,7.134,0,12.028,4.894,12.028,12.467v.443c0,8.237-5.338,14.249-16.479,19.148-5.342-6.681-8.011-11.8-8.011-17.809M235.534,74.65v.443c0,10.02,3.121,19.591,10.246,29.837-21.157,9.576-31.62,24.273-31.62,43.643v.443c0,28.281,23.826,44.978,55.662,44.978a74.175,74.175,0,0,0,46.312-15.81l16.031,16.253,29.172-20.93-20.931-20.7a295.114,295.114,0,0,0,20.483-32.954l-28.5-14.249A234.569,234.569,0,0,1,317.7,130.312l-17.37-16.923c18.262-8.459,30.5-21.374,30.5-40.522v-.443c0-22.713-18.031-40.079-46.317-40.079-30.5,0-48.981,19.591-48.981,42.3" transform="translate(-214.16 -32.346)" fill="none"/>
    </clipPath>
    <linearGradient id="linear-gradient-11" x1="-5.873" y1="0.951" x2="-5.845" y2="0.951" xlink:href="#linear-gradient"/>
    <clipPath id="clip-path-12">
      <path id="Path_181" data-name="Path 181" d="M254.631,113.39v.448c0,47.2,36.288,80.6,84.825,80.6a105.35,105.35,0,0,0,67.69-24.047V100.253H335.453v31.62h30.728V150.8c-6.455,4.229-14.475,6.46-24.938,6.46-24.717,0-42.3-18.04-42.3-43.2v-.443c0-23.826,17.366-42.752,39.848-42.752,15.367,0,26.508,5.347,37.636,14.692l25.377-30.5C385.33,40.8,365.955,32.346,338.57,32.346c-48.321,0-83.939,35.623-83.939,81.044" transform="translate(-254.631 -32.346)" fill="none"/>
    </clipPath>
    <linearGradient id="linear-gradient-12" x1="-6.779" y1="0.95" x2="-6.752" y2="0.95" xlink:href="#linear-gradient"/>
    <clipPath id="clip-path-13">
      <path id="Path_182" data-name="Path 182" d="M336.061,70.426h28.272c14.48,0,23.387,6.233,23.387,18.483v.443c0,11.359-8.464,18.479-23.156,18.479h-28.5Zm-43.2-37.405V188.88h43.2v-47.2h18.922l31.4,47.2h49.872l-37.183-54.328c19.365-8.237,32.067-24.047,32.067-47.873v-.443c0-15.362-4.682-27.39-13.806-36.292-10.468-10.689-26.947-16.923-50.768-16.923Z" transform="translate(-292.866 -33.021)" fill="none"/>
    </clipPath>
    <linearGradient id="linear-gradient-13" x1="-8.281" y1="0.969" x2="-8.253" y2="0.969" xlink:href="#linear-gradient"/>
    <clipPath id="clip-path-14">
      <path id="Path_183" data-name="Path 183" d="M370.69,113.39v-.443c0-22.486,15.8-41.639,39.4-41.639,23.83,0,40.088,19.6,40.088,42.083v.448c0,22.487-15.814,41.639-39.635,41.639-23.6,0-39.852-19.6-39.852-42.087m-44.313,0v.448c0,44.756,35.623,80.6,83.713,80.6s84.17-36.292,84.17-81.048v-.443c0-44.756-35.623-80.6-83.717-80.6s-84.165,36.288-84.165,81.044" transform="translate(-326.377 -32.346)" fill="none"/>
    </clipPath>
    <linearGradient id="linear-gradient-14" x1="-7.997" y1="0.945" x2="-7.972" y2="0.945" xlink:href="#linear-gradient"/>
    <clipPath id="clip-path-15">
      <path id="Path_184" data-name="Path 184" d="M466.275,32.924l-30.059,90.625L409.048,33.372H363.405l52.1,156.971h37.631l31.167-89.729,31.4,89.729h37.631l52.1-156.971H560.681l-27.164,90.177L503.454,32.924Z" transform="translate(-363.405 -32.924)" fill="none"/>
    </clipPath>
    <linearGradient id="linear-gradient-15" x1="-6.414" y1="0.931" x2="-6.396" y2="0.931" xlink:href="#linear-gradient"/>
  </defs>
  <g id="Group_197" data-name="Group 197" opacity="0.04">
    <g id="Group_168" data-name="Group 168" transform="translate(223.313 62.824)">
      <g id="Group_167" data-name="Group 167" clip-path="url(#clip-path)">
        <rect id="Rectangle_182" data-name="Rectangle 182" width="91.373" height="56.844" transform="translate(0 -0.001)" fill="url(#linear-gradient)"/>
      </g>
    </g>
    <g id="Group_170" data-name="Group 170" transform="translate(113.388 277.932)">
      <g id="Group_169" data-name="Group 169" clip-path="url(#clip-path-2)">
        <rect id="Rectangle_183" data-name="Rectangle 183" width="1.607" height="0.785" transform="translate(0 -0.001)" fill="url(#linear-gradient-2)"/>
      </g>
    </g>
    <g id="Group_172" data-name="Group 172">
      <g id="Group_171" data-name="Group 171" clip-path="url(#clip-path-3)">
        <rect id="Rectangle_184" data-name="Rectangle 184" width="238.514" height="295.838" transform="translate(0 -0.001)" fill="url(#linear-gradient-3)"/>
      </g>
    </g>
    <g id="Group_174" data-name="Group 174" transform="translate(69.177 121.261)">
      <g id="Group_173" data-name="Group 173" clip-path="url(#clip-path-4)">
        <rect id="Rectangle_185" data-name="Rectangle 185" width="250.925" height="187.067" transform="translate(0 -0.001)" fill="url(#linear-gradient-4)"/>
      </g>
    </g>
    <g id="Group_176" data-name="Group 176" transform="translate(157.682 224.131)">
      <g id="Group_175" data-name="Group 175" clip-path="url(#clip-path-5)">
        <rect id="Rectangle_186" data-name="Rectangle 186" width="0.042" height="0.032" transform="translate(0 -0.001)" fill="url(#linear-gradient-5)"/>
      </g>
    </g>
    <g id="Group_178" data-name="Group 178" transform="translate(57.694 31.167)">
      <g id="Group_177" data-name="Group 177" clip-path="url(#clip-path-6)">
        <rect id="Rectangle_187" data-name="Rectangle 187" width="262.362" height="273.564" transform="translate(0 -0.001)" fill="url(#linear-gradient-6)"/>
      </g>
    </g>
    <g id="Group_180" data-name="Group 180" transform="translate(347.576 152.469)">
      <g id="Group_179" data-name="Group 179" clip-path="url(#clip-path-7)">
        <rect id="Rectangle_188" data-name="Rectangle 188" width="137.64" height="169.764" transform="translate(-19.782 2.552) rotate(-7.352)" fill="url(#linear-gradient-7)"/>
      </g>
    </g>
    <g id="Group_182" data-name="Group 182" transform="translate(484.72 152.469)">
      <g id="Group_181" data-name="Group 181" clip-path="url(#clip-path-8)">
        <rect id="Rectangle_189" data-name="Rectangle 189" width="145.375" height="170.762" transform="translate(-19.781 2.552) rotate(-7.352)" fill="url(#linear-gradient-8)"/>
      </g>
    </g>
    <g id="Group_184" data-name="Group 184" transform="translate(633.209 152.469)">
      <g id="Group_183" data-name="Group 183" clip-path="url(#clip-path-9)">
        <rect id="Rectangle_190" data-name="Rectangle 190" width="165.909" height="173.411" transform="translate(-19.782 2.552) rotate(-7.352)" fill="url(#linear-gradient-9)"/>
      </g>
    </g>
    <g id="Group_186" data-name="Group 186" transform="translate(807.971 152.469)">
      <g id="Group_185" data-name="Group 185" clip-path="url(#clip-path-10)">
        <rect id="Rectangle_191" data-name="Rectangle 191" width="166.797" height="173.526" transform="matrix(0.992, -0.128, 0.128, 0.992, -19.782, 2.552)" fill="url(#linear-gradient-10)"/>
      </g>
    </g>
    <g id="Group_188" data-name="Group 188" transform="translate(988.852 149.353)">
      <g id="Group_187" data-name="Group 187" clip-path="url(#clip-path-11)">
        <rect id="Rectangle_192" data-name="Rectangle 192" width="166.711" height="179.594" transform="translate(-20.573 2.654) rotate(-7.352)" fill="url(#linear-gradient-11)"/>
      </g>
    </g>
    <g id="Group_190" data-name="Group 190" transform="translate(1175.72 149.353)">
      <g id="Group_189" data-name="Group 189" clip-path="url(#clip-path-12)">
        <rect id="Rectangle_193" data-name="Rectangle 193" width="172.005" height="180.277" transform="translate(-20.573 2.654) rotate(-7.352)" fill="url(#linear-gradient-12)"/>
      </g>
    </g>
    <g id="Group_192" data-name="Group 192" transform="translate(1352.265 152.469)">
      <g id="Group_191" data-name="Group 191" clip-path="url(#clip-path-13)">
        <rect id="Rectangle_194" data-name="Rectangle 194" width="162.158" height="172.927" transform="translate(-19.782 2.552) rotate(-7.352)" fill="url(#linear-gradient-13)"/>
      </g>
    </g>
    <g id="Group_194" data-name="Group 194" transform="translate(1506.997 149.353)">
      <g id="Group_193" data-name="Group 193" clip-path="url(#clip-path-14)">
        <rect id="Rectangle_195" data-name="Rectangle 195" width="187.245" height="182.243" transform="matrix(0.992, -0.128, 0.128, 0.992, -20.573, 2.654)" fill="url(#linear-gradient-14)"/>
      </g>
    </g>
    <g id="Group_196" data-name="Group 196" transform="translate(1677.968 152.021)">
      <g id="Group_195" data-name="Group 195" clip-path="url(#clip-path-15)">
        <rect id="Rectangle_196" data-name="Rectangle 196" width="260.187" height="187.098" transform="matrix(0.992, -0.128, 0.128, 0.992, -19.98, 2.578)" fill="url(#linear-gradient-15)"/>
      </g>
    </g>
  </g>
</svg>
