<svg id="Group_198" data-name="Group 198" xmlns="http://www.w3.org/2000/svg" xmlns:xlink="http://www.w3.org/1999/xlink" width="412.79" height="66.959" viewBox="0 0 412.79 66.959">
  <defs>
    <clipPath id="clip-path">
      <path id="Path_170" data-name="Path 170" d="M48.364,17.2l4.875,3.516.923.33-.091.27L59.171,25l.105-.215.826-1.691,4.026,1.391q1.94.673,3.88,1.347c-.165-.464-.317-.923-.469-1.383l-.365-1.112L53.789,13.606q-2.71,1.8-5.425,3.595" transform="translate(-48.364 -13.606)" fill="none"/>
    </clipPath>
    <linearGradient id="linear-gradient" x1="-2.444" y1="4.374" x2="-2.393" y2="4.374" gradientUnits="objectBoundingBox">
      <stop offset="0" stop-color="#0069b5"/>
      <stop offset="1" stop-color="#003d78"/>
    </linearGradient>
    <clipPath id="clip-path-2">
      <path id="Path_171" data-name="Path 171" d="M24.809,60.193c-.084.056-.167.113-.252.169.116-.056.23-.113.345-.169Z" transform="translate(-24.557 -60.193)" fill="none"/>
    </clipPath>
    <linearGradient id="linear-gradient-2" x1="-70.565" y1="42.693" x2="-67.692" y2="42.693" xlink:href="#linear-gradient"/>
    <clipPath id="clip-path-3">
      <path id="Path_172" data-name="Path 172" d="M34.849,0,17.062,12.928V4.7H11.423V17.02L0,25.324,12.44,63.6c.426-.214.858-.416,1.29-.616.6-.276,1.157-.535,1.695-.83.515-.284,1.032-.563,1.55-.844.937-.508,1.891-1.025,2.836-1.56H17.78L7.232,27.529,34.849,7.608l11,7.932q2.719-1.8,5.433-3.6Z" fill="none"/>
    </clipPath>
    <linearGradient id="linear-gradient-3" x1="0" y1="1.053" x2="0.019" y2="1.053" xlink:href="#linear-gradient"/>
    <clipPath id="clip-path-4">
      <path id="Path_173" data-name="Path 173" d="M60.984,26.571l1.592,1.15L52.028,59.945H30.208c-1.128.637-2.268,1.255-3.433,1.834a79.668,79.668,0,0,1-11.793,4.7H56.5L68.93,28.219a2.376,2.376,0,0,1-1.85.108l-4.015-1.395-1.929-.67c-.052.1-.1.205-.151.309" transform="translate(-14.982 -26.262)" fill="none"/>
    </clipPath>
    <linearGradient id="linear-gradient-4" x1="-0.276" y1="1.017" x2="-0.257" y2="1.017" xlink:href="#linear-gradient"/>
    <clipPath id="clip-path-5">
      <path id="Path_174" data-name="Path 174" d="M34.157,48.548l0,0-.009,0,.007.007" transform="translate(-34.15 -48.541)" fill="none"/>
    </clipPath>
    <linearGradient id="linear-gradient-5" x1="-3793.312" y1="0.5" x2="-3682.234" y2="0.5" gradientUnits="objectBoundingBox">
      <stop offset="0" stop-color="#00973e"/>
      <stop offset="0.233" stop-color="#00973e"/>
      <stop offset="1" stop-color="#89ba2b"/>
    </linearGradient>
    <clipPath id="clip-path-6">
      <path id="Path_175" data-name="Path 175" d="M33.493,44.761a23.751,23.751,0,0,1-3.369-6.1c-.089-.241-.028-.347.184-.449q1.8-.867,3.588-1.745,2.29-1.123,4.576-2.254c.14-.068.219-.049.286.093a22.881,22.881,0,0,0,2.168,3.628,21.486,21.486,0,0,0,1.848,2.226,69.363,69.363,0,0,1-6.3,7.9,25.074,25.074,0,0,1-2.982-3.3M60.779,7.068c-1.459,1.023-2.967,1.979-4.452,2.965Q50.844,13.672,45.359,17.3a1.215,1.215,0,0,0-.6,1.265,1.157,1.157,0,0,0,.9.957c1.519.517,3.035,1.044,4.551,1.57.613.213,1.224.435,1.857.661-.073.21-.126.359-.178.51q-.405,1.2-.812,2.4v0c-.282.633-.569,1.266-.847,1.9-.324.744-.638,1.491-.958,2.237l.036-.007-.021.017a1.82,1.82,0,0,0-.231.292c-.267.544-.5,1.106-.785,1.639-1.049,1.953-2.042,3.938-3.186,5.834-.518.857-1.055,1.7-1.6,2.525a18.564,18.564,0,0,1-1.8-2.725,14.96,14.96,0,0,1-1.516-4.167c-.063-.312-.119-.625-.183-.959a2.106,2.106,0,0,0-.236.078c-.978.476-1.959.947-2.927,1.439-.216.11-.286.052-.335-.145-.155-.625-.315-1.25-.464-1.876-.057-.238-.088-.482-.137-.751-.13.057-.226.094-.319.14-.55.27-1.1.545-1.647.813-1.065.519-2.132,1.032-3.2,1.553q-1.836.9-3.667,1.8c-1.063.521-2.123,1.05-3.192,1.561a.251.251,0,0,0-.151.374c.207.567.373,1.154.629,1.7.482,1.026.963,2.061,1.541,3.036a17.484,17.484,0,0,0,6.7,6.61c.454.249.939.439,1.412.655-.036-.038-.07-.077-.109-.111-.713-.629-1.457-1.226-2.134-1.891a24.557,24.557,0,0,1-4.23-5.563A23.312,23.312,0,0,1,26,37.355a.2.2,0,0,1,.123-.3c.343-.159.681-.333,1.02-.5q1.564-.77,3.125-1.536,1.626-.8,3.256-1.594c.338-.165.679-.322,1.036-.49.1.205.187.387.279.564a.187.187,0,0,1-.1.293c-.153.071-.309.139-.461.213q-1.541.756-3.082,1.514c-1.042.51-2.089,1.015-3.13,1.529-.322.158-.318.171-.207.522.014.046.029.092.046.138a22.341,22.341,0,0,0,2.53,5.207A17.774,17.774,0,0,0,36.1,48.458a67.215,67.215,0,0,1-13.03,10.764c-2.329,1.476-4.787,2.752-7.208,4.079-1,.547-2.058.977-3.073,1.492-.147.075-.2.336-.3.511.185.083.364.177.556.241.063.02.152-.037.228-.061A78.581,78.581,0,0,0,25.95,60.518,72.151,72.151,0,0,0,47.12,44.568,72.491,72.491,0,0,0,59.089,26.916c.373-.775.753-1.547,1.139-2.337.386.132.734.25,1.08.37Q64.265,25.975,67.22,27a1.188,1.188,0,0,0,1.5-1.5c-.193-.527-.367-1.061-.542-1.594C66.418,18.537,64.639,13.176,62.909,7.8A1.338,1.338,0,0,0,61.677,6.75a1.576,1.576,0,0,0-.9.318" transform="translate(-12.495 -6.75)" fill="none"/>
    </clipPath>
    <linearGradient id="linear-gradient-6" x1="-0.22" y1="1.025" x2="-0.202" y2="1.025" xlink:href="#linear-gradient-5"/>
    <clipPath id="clip-path-7">
      <path id="Path_176" data-name="Path 176" d="M75.276,33.021V66.53H100.79V58.392H84.563V33.021Z" transform="translate(-75.276 -33.021)" fill="none"/>
    </clipPath>
    <linearGradient id="linear-gradient-7" x1="-2.456" y1="0.977" x2="-2.423" y2="0.977" xlink:href="#linear-gradient"/>
    <clipPath id="clip-path-8">
      <path id="Path_177" data-name="Path 177" d="M104.978,33.021V66.53h27.19v-7.9h-18V53.318h16.085V45.994H114.168V40.92h17.76v-7.9Z" transform="translate(-104.978 -33.021)" fill="none"/>
    </clipPath>
    <linearGradient id="linear-gradient-8" x1="-3.269" y1="0.975" x2="-3.237" y2="0.975" xlink:href="#linear-gradient"/>
    <clipPath id="clip-path-9">
      <path id="Path_178" data-name="Path 178" d="M159.588,33.021V50.733L145.8,33.021h-8.665V66.53h9.191V48.147L160.64,66.53h8.138V33.021Z" transform="translate(-137.137 -33.021)" fill="none"/>
    </clipPath>
    <linearGradient id="linear-gradient-9" x1="-3.76" y1="0.967" x2="-3.732" y2="0.967" xlink:href="#linear-gradient"/>
    <clipPath id="clip-path-10">
      <path id="Path_179" data-name="Path 179" d="M184.273,41.254h3.781c5.554,0,9.239,3.112,9.239,8.474v.1c0,5.409-3.685,8.473-9.239,8.473h-3.781Zm-9.287-8.234V66.53h12.732c12.064,0,19.1-7.18,19.1-16.85v-.1c0-9.67-6.942-16.563-18.909-16.563Z" transform="translate(-174.986 -33.021)" fill="none"/>
    </clipPath>
    <linearGradient id="linear-gradient-10" x1="-4.788" y1="0.967" x2="-4.76" y2="0.967" xlink:href="#linear-gradient"/>
    <clipPath id="clip-path-11">
      <path id="Path_180" data-name="Path 180" d="M223.448,56.951v-.1a4.246,4.246,0,0,1,2.392-3.638l5.506,5.6a7.338,7.338,0,0,1-3.974,1.435c-2.3,0-3.924-1.34-3.924-3.3m3.159-15.174v-.1a2.7,2.7,0,0,1,2.679-2.967,2.488,2.488,0,0,1,2.586,2.68v.1c0,1.771-1.148,3.063-3.543,4.117a6.067,6.067,0,0,1-1.722-3.829m-7.851-.336v.1a10.933,10.933,0,0,0,2.2,6.415c-4.549,2.059-6.8,5.219-6.8,9.383v.1c0,6.08,5.122,9.67,11.967,9.67a15.947,15.947,0,0,0,9.957-3.4l3.447,3.494,6.272-4.5-4.5-4.451a63.449,63.449,0,0,0,4.4-7.085L239.579,48.1a50.43,50.43,0,0,1-3.159,5.313l-3.735-3.638c3.926-1.819,6.558-4.6,6.558-8.712v-.1c0-4.883-3.876-8.617-9.958-8.617-6.558,0-10.531,4.212-10.531,9.1" transform="translate(-214.16 -32.346)" fill="none"/>
    </clipPath>
    <linearGradient id="linear-gradient-11" x1="-5.873" y1="0.951" x2="-5.845" y2="0.951" xlink:href="#linear-gradient"/>
    <clipPath id="clip-path-12">
      <path id="Path_181" data-name="Path 181" d="M254.631,49.77v.1c0,10.148,7.8,17.329,18.237,17.329a22.65,22.65,0,0,0,14.553-5.17V46.946H272.007v6.8h6.606v4.069a9.472,9.472,0,0,1-5.362,1.389c-5.314,0-9.1-3.878-9.1-9.288v-.1c0-5.122,3.734-9.191,8.567-9.191a11.828,11.828,0,0,1,8.092,3.159l5.456-6.557a19.537,19.537,0,0,0-13.594-4.883c-10.389,0-18.046,7.659-18.046,17.424" transform="translate(-254.631 -32.346)" fill="none"/>
    </clipPath>
    <linearGradient id="linear-gradient-12" x1="-6.779" y1="0.95" x2="-6.752" y2="0.95" xlink:href="#linear-gradient"/>
    <clipPath id="clip-path-13">
      <path id="Path_182" data-name="Path 182" d="M302.153,41.063h6.078c3.113,0,5.028,1.34,5.028,3.974v.1c0,2.442-1.82,3.973-4.978,3.973h-6.128Zm-9.287-8.042V66.53h9.287V56.381h4.068l6.751,10.148h10.722L315.7,54.85a10.6,10.6,0,0,0,6.894-10.292v-.1a10.392,10.392,0,0,0-2.968-7.8c-2.25-2.3-5.793-3.638-10.915-3.638Z" transform="translate(-292.866 -33.021)" fill="none"/>
    </clipPath>
    <linearGradient id="linear-gradient-13" x1="-8.281" y1="0.969" x2="-8.253" y2="0.969" xlink:href="#linear-gradient"/>
    <clipPath id="clip-path-14">
      <path id="Path_183" data-name="Path 183" d="M335.9,49.77v-.1c0-4.834,3.4-8.952,8.471-8.952,5.123,0,8.619,4.213,8.619,9.048v.1c0,4.834-3.4,8.952-8.521,8.952-5.075,0-8.568-4.213-8.568-9.049m-9.527,0v.1c0,9.622,7.659,17.329,18,17.329s18.1-7.8,18.1-17.425v-.1c0-9.622-7.659-17.329-18-17.329s-18.1,7.8-18.1,17.424" transform="translate(-326.377 -32.346)" fill="none"/>
    </clipPath>
    <linearGradient id="linear-gradient-14" x1="-7.997" y1="0.945" x2="-7.972" y2="0.945" xlink:href="#linear-gradient"/>
    <clipPath id="clip-path-15">
      <path id="Path_184" data-name="Path 184" d="M385.522,32.924l-6.462,19.484L373.218,33.02h-9.813l11.2,33.748H382.7l6.7-19.291,6.75,19.291h8.091l11.2-33.748h-9.622l-5.84,19.388-6.464-19.484Z" transform="translate(-363.405 -32.924)" fill="none"/>
    </clipPath>
    <linearGradient id="linear-gradient-15" x1="-6.414" y1="0.931" x2="-6.396" y2="0.931" xlink:href="#linear-gradient"/>
  </defs>
  <g id="Group_168" data-name="Group 168" transform="translate(48.011 13.507)">
    <g id="Group_167" data-name="Group 167" clip-path="url(#clip-path)">
      <rect id="Rectangle_182" data-name="Rectangle 182" width="19.645" height="12.221" transform="translate(0 0)" fill="url(#linear-gradient)"/>
    </g>
  </g>
  <g id="Group_170" data-name="Group 170" transform="translate(24.378 59.754)">
    <g id="Group_169" data-name="Group 169" clip-path="url(#clip-path-2)">
      <rect id="Rectangle_183" data-name="Rectangle 183" width="0.345" height="0.169" transform="translate(0 0)" fill="url(#linear-gradient-2)"/>
    </g>
  </g>
  <g id="Group_172" data-name="Group 172">
    <g id="Group_171" data-name="Group 171" clip-path="url(#clip-path-3)">
      <rect id="Rectangle_184" data-name="Rectangle 184" width="51.279" height="63.604" transform="translate(0 0)" fill="url(#linear-gradient-3)"/>
    </g>
  </g>
  <g id="Group_174" data-name="Group 174" transform="translate(14.873 26.07)">
    <g id="Group_173" data-name="Group 173" clip-path="url(#clip-path-4)">
      <rect id="Rectangle_185" data-name="Rectangle 185" width="53.948" height="40.218" transform="translate(0 0)" fill="url(#linear-gradient-4)"/>
    </g>
  </g>
  <g id="Group_176" data-name="Group 176" transform="translate(33.901 48.187)">
    <g id="Group_175" data-name="Group 175" clip-path="url(#clip-path-5)">
      <rect id="Rectangle_186" data-name="Rectangle 186" width="0.009" height="0.007" transform="translate(0 0)" fill="url(#linear-gradient-5)"/>
    </g>
  </g>
  <g id="Group_178" data-name="Group 178" transform="translate(12.404 6.701)">
    <g id="Group_177" data-name="Group 177" clip-path="url(#clip-path-6)">
      <rect id="Rectangle_187" data-name="Rectangle 187" width="56.407" height="58.815" transform="translate(0 0)" fill="url(#linear-gradient-6)"/>
    </g>
  </g>
  <g id="Group_180" data-name="Group 180" transform="translate(74.727 32.78)">
    <g id="Group_179" data-name="Group 179" clip-path="url(#clip-path-7)">
      <rect id="Rectangle_188" data-name="Rectangle 188" width="29.592" height="36.498" transform="translate(-4.253 0.549) rotate(-7.352)" fill="url(#linear-gradient-7)"/>
    </g>
  </g>
  <g id="Group_182" data-name="Group 182" transform="translate(104.212 32.78)">
    <g id="Group_181" data-name="Group 181" clip-path="url(#clip-path-8)">
      <rect id="Rectangle_189" data-name="Rectangle 189" width="31.255" height="36.713" transform="translate(-4.253 0.549) rotate(-7.352)" fill="url(#linear-gradient-8)"/>
    </g>
  </g>
  <g id="Group_184" data-name="Group 184" transform="translate(136.137 32.78)">
    <g id="Group_183" data-name="Group 183" clip-path="url(#clip-path-9)">
      <rect id="Rectangle_190" data-name="Rectangle 190" width="35.67" height="37.282" transform="translate(-4.253 0.549) rotate(-7.352)" fill="url(#linear-gradient-9)"/>
    </g>
  </g>
  <g id="Group_186" data-name="Group 186" transform="translate(173.71 32.78)">
    <g id="Group_185" data-name="Group 185" clip-path="url(#clip-path-10)">
      <rect id="Rectangle_191" data-name="Rectangle 191" width="35.861" height="37.307" transform="matrix(0.992, -0.128, 0.128, 0.992, -4.253, 0.549)" fill="url(#linear-gradient-10)"/>
    </g>
  </g>
  <g id="Group_188" data-name="Group 188" transform="translate(212.598 32.11)">
    <g id="Group_187" data-name="Group 187" clip-path="url(#clip-path-11)">
      <rect id="Rectangle_192" data-name="Rectangle 192" width="35.842" height="38.612" transform="translate(-4.423 0.571) rotate(-7.352)" fill="url(#linear-gradient-11)"/>
    </g>
  </g>
  <g id="Group_190" data-name="Group 190" transform="translate(252.774 32.11)">
    <g id="Group_189" data-name="Group 189" clip-path="url(#clip-path-12)">
      <rect id="Rectangle_193" data-name="Rectangle 193" width="36.98" height="38.759" transform="translate(-4.423 0.571) rotate(-7.352)" fill="url(#linear-gradient-12)"/>
    </g>
  </g>
  <g id="Group_192" data-name="Group 192" transform="translate(290.73 32.78)">
    <g id="Group_191" data-name="Group 191" clip-path="url(#clip-path-13)">
      <rect id="Rectangle_194" data-name="Rectangle 194" width="34.863" height="37.178" transform="translate(-4.253 0.549) rotate(-7.352)" fill="url(#linear-gradient-13)"/>
    </g>
  </g>
  <g id="Group_194" data-name="Group 194" transform="translate(323.996 32.11)">
    <g id="Group_193" data-name="Group 193" clip-path="url(#clip-path-14)">
      <rect id="Rectangle_195" data-name="Rectangle 195" width="40.257" height="39.181" transform="matrix(0.992, -0.128, 0.128, 0.992, -4.423, 0.571)" fill="url(#linear-gradient-14)"/>
    </g>
  </g>
  <g id="Group_196" data-name="Group 196" transform="translate(360.754 32.684)">
    <g id="Group_195" data-name="Group 195" clip-path="url(#clip-path-15)">
      <rect id="Rectangle_196" data-name="Rectangle 196" width="55.939" height="40.225" transform="matrix(0.992, -0.128, 0.128, 0.992, -4.295, 0.554)" fill="url(#linear-gradient-15)"/>
    </g>
  </g>
</svg>
