<svg id="Group_96" data-name="Group 96" xmlns="http://www.w3.org/2000/svg" width="39.554" height="35.998" viewBox="0 0 39.554 35.998">
  <g id="Group_94" data-name="Group 94" transform="translate(0 0)">
    <path id="Path_92" data-name="Path 92" d="M169.284,308.31a15.832,15.832,0,0,0-15.814,15.814H185.1A15.831,15.831,0,0,0,169.284,308.31Z" transform="translate(-153.47 -288.126)" fill="#fff"/>
    <path id="Path_93" data-name="Path 93" d="M247.021,57.469a9.012,9.012,0,1,0,9.012,9.011A9.011,9.011,0,0,0,247.021,57.469Zm3.065,10.6a2.431,2.431,0,0,1-2.28,2.472v1.086h-1.818V70.475a4.893,4.893,0,0,1-1.961-.86l1.014-1.34a3.775,3.775,0,0,0,2.086.734c.733,0,1.176-.291,1.176-.769v-.024c0-.454-.28-.686-1.643-1.037-1.642-.419-2.7-.873-2.7-2.493v-.023a2.392,2.392,0,0,1,2.031-2.371v-.956h1.817v.973a3.215,3.215,0,0,1,1.592.62l-.9,1.409a3.057,3.057,0,0,0-1.712-.548c-.687,0-1.049.314-1.049.71v.024c0,.537.349.711,1.759,1.072,1.654.432,2.587,1.024,2.587,2.447v.024Z" transform="translate(-231.207 -57.469)" fill="#fff"/>
  </g>
  <path id="Path_143" data-name="Path 143" d="M466.511,128.3h8.742a1.712,1.712,0,1,0,0-3.425h-8.742a1.712,1.712,0,0,0-1.712,1.712A1.773,1.773,0,0,0,466.511,128.3Z" transform="translate(-437.414 -112.866)" fill="#fff"/>
  <path id="Path_145" data-name="Path 145" d="M474.693,213.92h-8.742a1.712,1.712,0,0,0,0,3.425h8.742a1.712,1.712,0,0,0,1.712-1.712A1.657,1.657,0,0,0,474.693,213.92Z" transform="translate(-436.854 -196.434)" fill="#fff"/>
  <path id="Path_146" data-name="Path 146" d="M474.693,213.92h-8.742a1.712,1.712,0,0,0,0,3.425h8.742a1.712,1.712,0,0,0,1.712-1.712A1.657,1.657,0,0,0,474.693,213.92Z" transform="translate(-436.854 -207.383)" fill="#fff"/>
</svg>
