<svg id="ic_collections_24px" xmlns="http://www.w3.org/2000/svg" width="43.533" height="43.533" viewBox="0 0 43.533 43.533">
  <path id="ic_collections_24px-2" data-name="ic_collections_24px" d="M45.533,32.473V6.353A4.366,4.366,0,0,0,41.18,2H15.06a4.366,4.366,0,0,0-4.353,4.353v26.12a4.366,4.366,0,0,0,4.353,4.353H41.18A4.366,4.366,0,0,0,45.533,32.473ZM21.59,23.767l4.419,5.9,6.465-8.075L41.18,32.473H15.06ZM2,10.707V41.18a4.366,4.366,0,0,0,4.353,4.353H36.827V41.18H6.353V10.707Z" transform="translate(-2 -2)" fill="#05508d"/>
</svg>
