<svg id="Component_17_1" data-name="Component 17 – 1" xmlns="http://www.w3.org/2000/svg" width="149.407" height="124.603" viewBox="0 0 149.407 124.603">
  <path id="Path_6" data-name="Path 6" d="M176.7,238.157c-8.177,1.487-16.353,3.159-24.715,3.716a15.407,15.407,0,0,1-11.15-4.088,17.683,17.683,0,0,1-5.2-9.663,15.672,15.672,0,0,1-12.823-5.947,17.182,17.182,0,0,1-3.531-9.849V169.585a17.257,17.257,0,0,1,5.388-12.823,18.028,18.028,0,0,1,9.106-4.274c10.221-1.487,20.442-3.344,30.476-4.831a25.252,25.252,0,0,1,0,8.362c-10.034,1.672-20.07,3.344-30.1,4.831a8.538,8.538,0,0,0-6.5,8.177V212.14a8.265,8.265,0,0,0,4.088,7.247c1.672.929,3.716.743,5.388.557,14.867-1.859,29.547-4.831,44.227-7.99,8.92-2.044,17.84-3.716,26.76-5.2,9.477-1.3,19.14-2.416,28.8-2.23,4.274,0,7.433-4.088,7.433-8.177v-39.4c0-3.716-2.23-7.8-6.132-8.549a174.114,174.114,0,0,0-35.493,1.3,42.058,42.058,0,0,1,.185-8.362c10.593-1.3,21.185-2.23,31.778-1.672,2.416.185,5.018.185,7.247.929a15.023,15.023,0,0,1,8.549,7.619,24.706,24.706,0,0,1,1.859,5.2c2.23.185,4.46.185,6.318,1.115a15.663,15.663,0,0,1,9.106,10.221,19.036,19.036,0,0,1,.929,6.5v39.024a17.337,17.337,0,0,1-4.274,11.15,14.462,14.462,0,0,1-11.521,5.018c-13.008-.372-26.2,1.672-39.024,3.9-12.265,2.783-24.715,5.57-37.166,7.8Zm4.46-9.106c10.034-1.859,20.07-4.274,30.1-6.318,13.195-2.416,26.573-4.46,39.953-4.46a10.839,10.839,0,0,0,4.274-.557,8.113,8.113,0,0,0,4.46-7.433V170.516a9.246,9.246,0,0,0-2.787-6.875c-1.3-1.3-3.344-1.672-5.018-1.859v34.564c0,6.132-3.531,12.451-9.291,15.052a13.2,13.2,0,0,1-6.5,1.3c-12.636-.185-25.088,1.487-37.538,3.716-6.69,1.115-13.38,2.787-19.884,4.088-11.708,2.6-23.414,4.831-35.308,6.5a8.814,8.814,0,0,0,2.416,4.46,7.341,7.341,0,0,0,6.318,2.044c9.663-.931,19.327-2.6,28.805-4.462Z" transform="translate(-119.276 -117.285)" fill="#05508d"/>
  <path id="Path_7" data-name="Path 7" d="M175.445,342.371c-1.487.185-3.344.743-4.831,0a2.746,2.746,0,0,1,.557-4.831c5.947-.929,12.078-1.672,18.025-2.787a3.3,3.3,0,0,1,3.159.929,2.745,2.745,0,0,1-1.487,4.274c-5.2,1.115-10.221,1.672-15.424,2.415Z" transform="translate(-152.77 -247.701)" fill="#05508d"/>
  <path id="Path_8" data-name="Path 8" d="M285.535,249.673a15.315,15.315,0,0,1-17.282-12.265,14.6,14.6,0,0,1,3.9-13.008,14.9,14.9,0,0,1,13.008-4.646,15.1,15.1,0,0,1,8.549,3.9,15.145,15.145,0,0,1-8.178,26.016Zm-.557-5.388a9.788,9.788,0,0,0,7.061-14.123,9.488,9.488,0,0,0-9.849-5.018,9.775,9.775,0,0,0-8.549,10.778,9.421,9.421,0,0,0,11.337,8.362Z" transform="translate(-218.635 -170.801)" fill="#05508d"/>
  <path id="Path_10" data-name="Path 10" d="M283.792,113.89a2.9,2.9,0,0,1-2.787,1.487,3.364,3.364,0,0,1-2.787-3.159V82.857c-2.416,2.23-4.646,4.46-7.062,6.69a3.089,3.089,0,1,1-4.274-4.46c3.9-3.9,7.99-7.619,11.893-11.521,1.115-1.115,3.159-1.487,4.274-.185,3.9,3.9,7.8,7.8,11.521,11.893a3.293,3.293,0,0,1-.743,5.018c-1.115.372-2.6.372-3.344-.557-2.23-2.23-4.274-4.646-6.5-6.875v28.617c.184.928.371,1.671-.187,2.415Z" transform="translate(-217.262 -72.555)" fill="#05508d"/>
</svg>
