<svg id="noun-chats-4583600" xmlns="http://www.w3.org/2000/svg" width="75.738" height="72.297" viewBox="0 0 75.738 72.297">
  <path id="Path_59" data-name="Path 59" d="M317.48,68.4H286.367a6.935,6.935,0,0,0-6.914,6.914v27.656h24.2l10.372,10.371V102.965h3.456a6.932,6.932,0,0,0,6.914-6.914V75.309a6.934,6.934,0,0,0-6.914-6.914Z" transform="translate(-248.657 -68.395)" fill="#05508d" fill-rule="evenodd"/>
  <path id="Path_60" data-name="Path 60" d="M134.93,207.393V185.96H121.793a6.934,6.934,0,0,0-6.914,6.913v20.742a6.935,6.935,0,0,0,6.914,6.914l3.456,0V230.9l10.372-10.371h17.283a6.935,6.935,0,0,0,6.914-6.914v-6.291a3.235,3.235,0,0,1-.691.074l-24.2,0h0Z" transform="translate(-108.28 -168.674)" fill="#05508d" fill-rule="evenodd"/>
  <g id="Group_23" data-name="Group 23" transform="translate(0 72.291)">
    <path id="Path_61" data-name="Path 61" d="M0-.013H0v0H0v0Z" transform="translate(0 0.016)" fill="#05508d"/>
  </g>
  <g id="Group_24" data-name="Group 24" transform="translate(0.003 72.291)">
    <path id="Path_62" data-name="Path 62" d="M0-.016H0v0Z" transform="translate(0 0.016)" fill="#05508d"/>
  </g>
  <g id="Group_25" data-name="Group 25" transform="translate(0.005 72.291)">
    <path id="Path_63" data-name="Path 63" d="M0-.016v0H0v0Zm0,0H0Z" transform="translate(0 0.016)" fill="#05508d"/>
  </g>
  <g id="Group_26" data-name="Group 26" transform="translate(0.008 72.291)">
    <path id="Path_64" data-name="Path 64" d="M0-.013H0Zm0,0v0H0a0,0,0,0,1,0,0H0Z" transform="translate(0 0.016)" fill="#05508d"/>
  </g>
  <g id="Group_27" data-name="Group 27" transform="translate(0.01 72.291)">
    <path id="Path_65" data-name="Path 65" d="M0-.016v0H0v0Z" transform="translate(0 0.016)" fill="#05508d"/>
  </g>
  <g id="Group_28" data-name="Group 28" transform="translate(0.013 72.291)">
    <path id="Path_66" data-name="Path 66" d="M0-.016v0H0v0Zm0,0H0Z" transform="translate(0 0.016)" fill="#05508d"/>
  </g>
  <g id="Group_29" data-name="Group 29" transform="translate(0.016 72.291)">
    <path id="Path_67" data-name="Path 67" d="M0-.016v0H0v0Zm0,0v0H0v0Z" transform="translate(0 0.016)" fill="#05508d"/>
  </g>
  <g id="Group_30" data-name="Group 30" transform="translate(0.02 72.291)">
    <path id="Path_68" data-name="Path 68" d="M0-.013v0H0v0Zm0,0H0v0H0Z" transform="translate(0 0.016)" fill="#05508d"/>
  </g>
  <g id="Group_31" data-name="Group 31" transform="translate(0.023 72.291)">
    <path id="Path_69" data-name="Path 69" d="M0-.016l0,0v0H0Z" transform="translate(0 0.016)" fill="#05508d"/>
  </g>
  <g id="Group_32" data-name="Group 32" transform="translate(0.027 72.291)">
    <path id="Path_70" data-name="Path 70" d="M0-.016H0v0H0Z" transform="translate(0 0.016)" fill="#05508d"/>
  </g>
  <g id="Group_33" data-name="Group 33" transform="translate(0.03 72.291)">
    <path id="Path_71" data-name="Path 71" d="M0-.016v0Z" transform="translate(0 0.016)" fill="#05508d"/>
  </g>
  <g id="Group_34" data-name="Group 34" transform="translate(0.031 72.291)">
    <path id="Path_72" data-name="Path 72" d="M0-.016v0H0v0Z" transform="translate(0 0.016)" fill="#05508d"/>
  </g>
  <g id="Group_35" data-name="Group 35" transform="translate(0.033 72.291)">
    <path id="Path_73" data-name="Path 73" d="M0-.013H0Zm0,0v0H0a0,0,0,0,1,0,0H0Z" transform="translate(0 0.016)" fill="#05508d"/>
  </g>
  <g id="Group_36" data-name="Group 36" transform="translate(0 72.294)">
    <path id="Path_74" data-name="Path 74" d="M0-.016v0H0v0Z" transform="translate(0 0.016)" fill="#05508d"/>
  </g>
  <g id="Group_37" data-name="Group 37" transform="translate(0.002 72.294)">
    <path id="Path_75" data-name="Path 75" d="M0-.016H0v0Z" transform="translate(0 0.016)" fill="#05508d"/>
  </g>
  <g id="Group_38" data-name="Group 38" transform="translate(0.004 72.294)">
    <path id="Path_76" data-name="Path 76" d="M0-.016H0v0H0Zm0,0v0H0v0Z" transform="translate(0 0.016)" fill="#05508d"/>
  </g>
  <g id="Group_39" data-name="Group 39" transform="translate(0.007 72.294)">
    <path id="Path_77" data-name="Path 77" d="M0-.016H0v0H0v0H0v0Z" transform="translate(0 0.016)" fill="#05508d"/>
  </g>
  <g id="Group_40" data-name="Group 40" transform="translate(0.013 72.294)">
    <path id="Path_78" data-name="Path 78" d="M0-.016v0H0v0Z" transform="translate(0 0.016)" fill="#05508d"/>
  </g>
  <g id="Group_41" data-name="Group 41" transform="translate(0.014 72.294)">
    <path id="Path_79" data-name="Path 79" d="M0-.016v0H0v0Z" transform="translate(0 0.016)" fill="#05508d"/>
  </g>
  <g id="Group_42" data-name="Group 42" transform="translate(0.017 72.294)">
    <path id="Path_80" data-name="Path 80" d="M0-.016v0H0v0Zm0,0H0Z" transform="translate(0 0.016)" fill="#05508d"/>
  </g>
  <g id="Group_43" data-name="Group 43" transform="translate(0.021 72.294)">
    <path id="Path_81" data-name="Path 81" d="M0-.016H0v0l0,0v0Z" transform="translate(0 0.016)" fill="#05508d"/>
  </g>
  <g id="Group_44" data-name="Group 44" transform="translate(0.025 72.294)">
    <path id="Path_82" data-name="Path 82" d="M0-.016H0v0H0Zm0,0v0H0v0Z" transform="translate(0 0.016)" fill="#05508d"/>
  </g>
  <g id="Group_45" data-name="Group 45" transform="translate(0.028 72.294)">
    <path id="Path_83" data-name="Path 83" d="M0-.013v0H0v0Z" transform="translate(0 0.016)" fill="#05508d"/>
  </g>
  <g id="Group_46" data-name="Group 46" transform="translate(0.03 72.294)">
    <path id="Path_84" data-name="Path 84" d="M0-.016v0H0v0Z" transform="translate(0 0.016)" fill="#05508d"/>
  </g>
  <g id="Group_47" data-name="Group 47" transform="translate(0.035 72.294)">
    <path id="Path_85" data-name="Path 85" d="M0-.016H0v0H0Z" transform="translate(0 0.016)" fill="#05508d"/>
  </g>
  <g id="Group_48" data-name="Group 48" transform="translate(0.038 72.294)">
    <path id="Path_86" data-name="Path 86" d="M0-.016H0v0Z" transform="translate(0 0.016)" fill="#05508d"/>
  </g>
  <g id="Group_49" data-name="Group 49" transform="translate(0.04 72.294)">
    <path id="Path_87" data-name="Path 87" d="M0-.016H0v0H0Zm0,0v0H0v0Z" transform="translate(0 0.016)" fill="#05508d"/>
  </g>
  <g id="Group_50" data-name="Group 50" transform="translate(0.043 72.294)">
    <path id="Path_88" data-name="Path 88" d="M0-.016v0Z" transform="translate(0 0.016)" fill="#05508d"/>
  </g>
  <g id="Group_51" data-name="Group 51" transform="translate(0.044 72.294)">
    <path id="Path_89" data-name="Path 89" d="M0-.016v0H0v0Zm0,0H0Z" transform="translate(0 0.016)" fill="#05508d"/>
  </g>
  <g id="Group_52" data-name="Group 52" transform="translate(0.047 72.294)">
    <path id="Path_90" data-name="Path 90" d="M0-.016H0v0H0v0Z" transform="translate(0 0.016)" fill="#05508d"/>
  </g>
  <g id="Group_53" data-name="Group 53" transform="translate(0.049 72.294)">
    <path id="Path_91" data-name="Path 91" d="M0-.016v0H0v0Z" transform="translate(0 0.016)" fill="#05508d"/>
  </g>
</svg>
