<svg xmlns="http://www.w3.org/2000/svg" width="35.569" height="36.937" viewBox="0 0 35.569 36.937">
  <g id="noun-verified-4300797" transform="translate(-122.495 -52.496)">
    <path id="Path_147" data-name="Path 147" d="M234.692,158.2c-1.655.588-7.949,3.064-9.822,3.981.315,8.3,5.8,16.485,9.781,16.485s9.494-8.236,9.781-16.553a53.3,53.3,0,0,0-9.74-3.913Zm-.438,14.6h0a1.388,1.388,0,0,1-1.943,0l-2.736-2.736a1.374,1.374,0,0,1,1.943-1.943l1.765,1.778,5.869-5.883a1.374,1.374,0,0,1,1.943,1.943Z" transform="translate(-94.372 -97.441)" fill="#00a652"/>
    <path id="Path_148" data-name="Path 148" d="M157.339,59.459C153.7,56.586,141.251,52.5,140.28,52.5c-.875,0-15.8,5.923-17.032,6.949a1.522,1.522,0,0,0-.752,1.259c0,14.5,8.81,28.729,17.784,28.729S158.064,75.205,158.064,60.7a1.436,1.436,0,0,0-.725-1.245Zm-17.06,24.5c-6.088,0-12.531-10.26-12.531-19.973a1.462,1.462,0,0,1,.739-1.231,66.07,66.07,0,0,1,6.143-2.736,44.433,44.433,0,0,1,5.65-2.052c.684,0,9.248,2.764,11.861,4.829a1.535,1.535,0,0,1,.67,1.19c0,9.713-6.443,19.973-12.531,19.973Z" fill="#05508d"/>
  </g>
</svg>
